<?xml version="1.0" standalone="no"?>
<!DOCTYPE svg PUBLIC "-//W3C//DTD SVG 20010904//EN"
 "http://www.w3.org/TR/2001/REC-SVG-20010904/DTD/svg10.dtd">
<svg version="1.0" xmlns="http://www.w3.org/2000/svg"
 width="384.000000pt" height="384.000000pt" viewBox="0 0 384.000000 384.000000"
 preserveAspectRatio="xMidYMid meet">
<metadata>
Created by potrace 1.11, written by Peter Selinger 2001-2013
</metadata>
<g transform="translate(0.000000,384.000000) scale(0.100000,-0.100000)"
fill="#000000" stroke="none">
<path d="M1371 3172 l-45 -28 -90 24 c-106 28 -190 25 -299 -8 -84 -26 -201
-104 -270 -180 -81 -90 -203 -298 -237 -405 -19 -60 -44 -105 -104 -189 -56
-78 -93 -164 -82 -193 5 -12 10 -13 18 -5 6 6 17 8 25 5 7 -3 13 -2 12 3 -8
34 39 103 60 89 6 -3 11 -1 11 4 0 6 -4 11 -9 11 -5 0 -7 10 -4 23 4 18 3 19
-7 7 -10 -13 -11 -13 -6 0 3 8 11 34 18 57 15 53 36 64 45 23 3 -17 10 -30 15
-30 5 0 7 3 5 8 -3 4 1 13 9 20 8 7 14 8 14 2 0 -5 4 -10 10 -10 5 0 6 7 3 17
-4 11 -3 14 6 9 6 -4 18 -2 26 4 12 10 16 9 21 -4 3 -9 11 -13 18 -9 6 3 3 -3
-7 -14 -10 -11 -15 -27 -11 -37 8 -20 -9 -21 -26 -1 -10 12 -10 19 -2 27 7 7
12 16 12 22 0 5 -10 -1 -21 -13 -17 -18 -23 -20 -30 -9 -7 10 -9 10 -9 -2 0
-18 8 -30 34 -50 12 -9 17 -10 12 -2 -4 6 -2 12 3 12 6 0 11 -6 11 -14 0 -7 7
-19 15 -26 12 -10 15 -9 15 4 0 10 -5 14 -11 10 -7 -4 -10 -1 -7 6 8 24 28 23
28 -1 0 -21 1 -21 13 -6 11 16 13 16 29 -2 16 -19 16 -21 -7 -40 -14 -10 -25
-24 -25 -31 0 -6 14 3 31 20 17 17 29 34 25 37 -3 3 -1 13 6 20 9 11 9 16 -1
23 -18 11 25 35 57 31 23 -3 31 14 10 21 -19 7 0 26 32 33 20 4 27 11 23 21
-3 10 6 27 26 44 21 20 31 24 31 14 0 -8 -12 -20 -26 -26 -17 -8 -24 -18 -21
-30 4 -13 -4 -23 -25 -34 -16 -8 -28 -18 -25 -21 3 -2 15 1 27 7 18 10 21 9
18 -2 -3 -7 -10 -13 -15 -13 -6 0 -21 -13 -33 -28 -20 -25 -23 -26 -35 -11 -7
11 -17 14 -25 9 -10 -6 -9 -11 5 -21 17 -13 16 -16 -19 -59 -21 -25 -46 -50
-57 -56 -23 -12 -16 -31 9 -23 11 4 8 -2 -8 -15 l-25 -20 48 16 c27 9 47 21
47 30 0 12 -3 12 -16 -1 -17 -18 -34 -13 -34 10 0 13 12 18 33 15 7 -1 47 35
47 44 0 2 -8 1 -17 -2 -16 -6 -17 -5 -3 11 8 11 16 14 18 7 2 -6 7 -9 12 -6 4
3 6 -4 3 -14 -3 -11 -11 -22 -19 -25 -8 -3 -14 -13 -14 -23 1 -14 7 -10 29 15
16 19 30 29 33 22 2 -6 18 3 38 20 48 44 70 55 70 36 0 -8 -4 -18 -10 -21 -5
-3 -10 -1 -10 4 0 6 -20 -10 -45 -36 -25 -25 -45 -41 -45 -34 0 22 -19 10 -60
-39 -47 -57 -47 -64 0 -20 35 33 53 41 27 12 -18 -20 -23 -47 -7 -37 6 3 10 0
10 -7 0 -7 12 -1 25 15 13 15 31 27 40 27 8 0 15 3 15 8 0 4 16 20 36 36 24
19 39 25 46 18 7 -7 3 -12 -10 -16 -11 -4 -23 -14 -26 -22 -3 -8 -10 -12 -16
-9 -5 3 -10 2 -10 -4 0 -5 -17 -20 -37 -32 -21 -13 -41 -27 -44 -32 -4 -6 -14
-7 -23 -4 -10 4 -16 1 -16 -7 0 -8 6 -17 13 -19 10 -4 9 -6 0 -6 -7 -1 -13 -8
-13 -17 0 -14 1 -14 16 0 23 23 29 19 11 -6 -8 -13 -20 -22 -26 -21 -6 2 -11
-4 -11 -13 0 -12 7 -10 31 11 17 14 34 23 38 19 3 -4 0 -9 -6 -11 -7 -3 -13
-9 -13 -14 0 -6 5 -7 10 -4 16 10 12 -2 -7 -21 -13 -13 -14 -19 -5 -22 7 -2
10 -8 7 -12 -3 -5 -12 -7 -20 -3 -11 4 -13 1 -8 -13 6 -17 5 -17 -10 -6 -14
12 -15 16 -2 29 14 13 20 33 12 33 -2 0 -13 -8 -24 -17 -22 -21 -26 -64 -5
-55 11 4 13 -1 7 -19 -3 -13 -3 -19 2 -14 4 6 16 16 25 23 16 13 17 11 13 -19
-2 -19 -8 -35 -13 -37 -5 -1 -18 -9 -28 -18 -19 -14 -18 -14 1 -12 11 2 25 9
31 16 8 11 12 11 23 -2 8 -9 11 -20 7 -23 -4 -4 -11 -1 -17 7 -7 11 -8 7 -5
-14 3 -16 16 -41 29 -55 14 -14 22 -33 20 -41 -3 -10 -2 -11 4 -3 8 12 36 3
34 -11 -3 -18 1 -19 9 -1 8 19 9 19 9 -2 1 -25 20 -30 40 -10 11 10 13 10 7 0
-4 -7 -2 -13 3 -13 6 0 11 5 11 11 0 5 6 7 13 3 7 -4 9 -3 4 2 -9 9 -14 11
-47 13 -13 1 -20 8 -20 20 0 23 16 36 25 21 3 -5 1 -10 -4 -10 -6 0 -11 -5
-11 -11 0 -8 5 -7 15 1 9 7 14 19 11 27 -3 7 -1 13 4 13 6 0 10 -9 10 -19 0
-11 5 -23 12 -27 7 -4 8 -3 4 4 -5 8 1 12 16 13 17 1 18 3 6 6 -10 2 -18 11
-18 18 0 9 6 12 15 9 11 -5 13 -2 9 11 -5 12 -14 15 -33 10 -14 -4 -27 -11
-29 -16 -2 -5 -14 -9 -26 -9 -12 0 -31 -7 -42 -16 -18 -15 -18 -15 4 -9 13 4
22 2 22 -5 0 -17 -45 -7 -46 10 -2 35 -5 40 -24 40 -26 0 -26 17 1 25 20 7 19
7 -6 31 -14 13 -21 24 -14 24 8 0 9 3 0 13 -16 21 -2 28 19 10 10 -9 16 -22
13 -29 -3 -8 0 -14 6 -14 6 0 11 4 11 10 0 5 3 9 8 9 18 -3 32 2 32 12 0 6 -8
8 -17 5 -21 -6 -42 9 -61 43 -11 18 -11 22 -1 19 7 -2 17 -13 23 -24 18 -31
29 -34 52 -13 13 12 24 16 28 10 4 -5 2 -12 -3 -16 -5 -3 -9 -14 -8 -25 1 -22
17 -16 17 7 0 9 6 13 15 9 8 -3 15 -1 15 4 0 6 -5 10 -10 10 -6 0 -5 8 2 20
16 26 31 26 23 0 -8 -25 3 -26 22 -2 9 11 9 6 -2 -17 -12 -24 -14 -36 -6 -44
8 -8 11 -8 11 1 0 7 6 12 14 12 9 0 13 10 11 28 -2 29 -24 77 -25 55 0 -7 -6
-13 -12 -13 -7 1 -2 10 12 21 16 13 24 29 22 43 -2 16 7 31 33 50 51 39 63 27
17 -18 -31 -31 -37 -44 -34 -67 4 -30 17 -38 25 -16 4 8 6 9 6 0 1 -6 -6 -18
-14 -27 -17 -17 -20 -36 -5 -36 6 0 10 5 10 10 0 6 6 10 14 10 8 0 16 7 20 15
3 8 12 15 21 15 17 0 19 9 6 29 -6 9 -11 10 -15 2 -4 -6 -12 -11 -18 -11 -7 0
-6 6 2 15 7 8 19 15 27 15 7 0 16 7 19 15 4 8 10 15 15 15 5 0 3 -11 -3 -25
-15 -33 -3 -43 22 -20 19 18 20 17 20 -3 0 -17 -6 -22 -25 -22 -14 0 -25 -4
-25 -10 0 -16 -44 -51 -57 -46 -7 3 -13 -1 -13 -8 0 -8 -13 -19 -30 -26 -16
-7 -30 -17 -30 -22 0 -13 39 0 74 25 l29 20 -5 -26 c-5 -24 -3 -27 14 -21 15
4 19 1 18 -13 -4 -35 1 -49 9 -28 5 11 5 28 0 37 -10 18 8 43 39 52 18 6 28
46 11 46 -5 0 -9 -6 -9 -14 0 -8 -7 -16 -15 -20 -23 -8 -18 21 5 34 10 6 23
10 27 9 23 -4 35 2 29 16 -3 8 -1 15 4 15 5 0 7 7 3 16 -3 9 -12 13 -21 9 -13
-5 -13 -3 1 13 9 10 17 22 17 26 0 12 -44 -6 -57 -23 -10 -12 -12 -13 -13 -2
0 8 7 19 16 26 9 6 18 26 19 43 3 35 -10 43 -20 13 -4 -14 -12 -18 -23 -14
-13 5 -14 3 -5 -7 14 -15 -4 -40 -24 -33 -7 3 -13 -2 -13 -11 0 -9 -4 -16 -10
-16 -20 0 -9 31 13 39 23 9 24 12 18 66 -1 6 -8 1 -16 -9 -11 -14 -15 -16 -15
-5 0 15 26 42 78 79 34 25 43 44 16 33 -14 -5 -14 -3 -2 16 11 18 14 19 16 6
2 -10 10 -14 18 -11 8 3 14 3 14 1 0 -7 -39 -45 -45 -45 -9 0 -41 -36 -48 -53
-7 -19 8 -23 18 -6 4 6 13 8 20 5 8 -3 16 5 19 20 4 13 11 24 16 24 6 0 4 -13
-5 -30 -15 -29 -15 -30 5 -30 20 0 20 -1 6 -16 -9 -8 -16 -22 -16 -31 0 -13 3
-13 16 -2 12 10 17 10 23 0 6 -9 15 -1 30 24 11 20 26 33 31 30 15 -9 12 -25
-5 -25 -8 0 -15 -9 -15 -20 0 -11 -4 -20 -10 -20 -5 0 -10 -7 -10 -15 0 -9 -6
-18 -14 -21 -9 -4 -13 -17 -11 -40 3 -24 -1 -37 -11 -41 -8 -3 -14 -10 -14
-16 0 -6 -8 -19 -17 -30 -17 -20 -17 -20 2 -14 17 6 16 4 -4 -13 -17 -14 -26
-17 -31 -10 -12 19 -16 -10 -12 -72 4 -55 22 -84 22 -35 0 31 26 84 46 91 11
4 14 14 10 34 -4 16 -1 35 6 45 11 15 13 6 15 -58 1 -57 -3 -78 -13 -82 -8 -3
-14 -11 -14 -19 0 -8 -4 -14 -10 -14 -15 0 -12 28 3 37 8 4 17 16 20 26 6 16
2 15 -23 -5 -23 -18 -29 -29 -25 -48 3 -14 6 -31 7 -37 1 -7 4 -13 8 -13 4 0
5 -11 2 -25 -2 -15 0 -25 7 -25 6 0 10 6 8 13 -1 6 5 12 13 12 8 0 18 8 22 18
4 9 15 17 25 17 13 0 14 3 5 12 -19 19 -14 56 8 63 11 3 20 13 20 21 0 8 4 14
10 14 5 0 7 -13 4 -30 -4 -19 -2 -30 5 -30 6 0 11 -9 11 -20 0 -11 -4 -20 -10
-20 -5 0 -10 9 -10 20 0 24 -13 26 -31 3 -10 -11 -10 -14 -1 -9 8 5 12 -1 12
-21 0 -15 5 -35 10 -43 8 -13 10 -13 10 2 0 9 9 23 20 31 15 11 19 21 15 39
-4 17 -1 29 11 39 16 13 17 11 11 -18 -7 -37 -1 -42 20 -15 12 16 13 15 11 -8
-2 -17 -8 -24 -20 -22 -10 2 -18 -2 -18 -8 0 -5 -7 -10 -15 -10 -21 0 -30 -27
-15 -45 6 -8 9 -19 6 -24 -4 -5 1 -14 11 -19 20 -12 26 -42 8 -42 -8 0 -17 -5
-21 -12 -7 -11 -4 -10 43 9 6 2 14 -5 18 -16 10 -32 25 -25 19 9 -5 22 -2 31
10 36 9 3 16 16 15 28 0 21 0 21 -11 -1 -15 -31 -28 -29 -29 5 0 26 0 27 -10
4 -10 -27 -29 -20 -29 11 0 28 45 73 53 53 3 -7 0 -19 -6 -25 -19 -19 14 -13
36 7 19 16 20 16 15 -10 -3 -16 -1 -28 4 -28 5 0 2 -10 -6 -22 -18 -25 -21
-68 -6 -68 6 0 10 7 10 15 0 32 19 13 25 -25 4 -22 10 -42 15 -45 12 -7 18 43
7 54 -6 6 -7 11 -3 11 5 0 15 -8 23 -17 11 -13 13 -14 10 -3 -2 8 -1 24 4 35
7 17 8 16 8 -7 1 -16 6 -28 11 -28 6 0 10 -7 10 -16 0 -12 -6 -15 -25 -10 -20
5 -25 3 -25 -13 0 -11 6 -26 13 -33 6 -7 14 -22 15 -33 5 -26 18 -40 26 -26 4
6 2 11 -4 11 -6 0 -9 4 -6 9 4 5 2 21 -4 35 -8 22 -6 27 20 43 30 17 47 43 30
43 -12 0 -13 33 -3 44 4 4 15 -28 24 -71 15 -67 15 -81 3 -100 -9 -14 -10 -24
-4 -28 6 -3 10 -1 10 6 0 7 8 5 20 -6 20 -18 21 -18 18 16 -2 19 -6 36 -10 39
-4 3 -3 12 2 20 12 20 22 8 25 -32 2 -18 5 -35 5 -38 1 -3 1 -15 1 -26 -1 -12
4 -24 12 -27 17 -7 15 23 -7 103 -20 71 -20 80 3 80 23 0 33 31 14 48 -10 10
-11 17 -1 35 12 21 12 21 16 2 1 -11 8 -30 14 -42 6 -13 7 -36 2 -60 -6 -29
-9 -33 -12 -15 -2 12 -8 22 -14 22 -7 0 -8 -13 -3 -37 4 -21 8 -46 7 -55 0
-10 3 -18 8 -18 4 0 7 -16 5 -35 -2 -24 1 -35 10 -35 14 0 14 58 0 93 -4 9 -4
25 -1 34 6 15 8 15 16 3 5 -9 5 -19 -2 -27 -8 -10 -7 -12 6 -7 12 4 16 1 14
-12 -1 -11 1 -38 6 -62 6 -35 11 -41 22 -32 7 7 18 9 25 5 12 -8 8 91 -6 133
-5 14 -3 22 4 22 6 0 11 -7 11 -15 0 -8 7 -15 15 -15 18 0 19 34 4 99 -8 36
-7 47 5 59 12 12 14 12 13 1 -2 -8 -6 -19 -10 -25 -4 -7 -1 -14 6 -17 15 -6
20 -82 7 -107 -19 -35 48 -61 83 -32 11 9 18 8 32 -8 20 -22 32 -18 45 16 5
13 15 24 21 24 6 0 8 -7 5 -16 -5 -14 -4 -15 8 -5 11 9 15 8 20 -5 4 -10 2
-22 -4 -28 -7 -7 -10 -6 -10 2 0 6 -6 9 -13 6 -17 -6 -57 -76 -57 -98 0 -9
-11 -21 -24 -26 -35 -13 -47 -39 -27 -60 9 -9 21 -24 26 -33 7 -12 14 -14 25
-7 11 7 12 12 3 21 -9 9 -8 17 7 36 10 13 22 42 25 65 5 26 18 53 36 70 15 16
29 38 31 49 2 15 18 26 56 39 61 22 69 10 22 -35 -16 -16 -30 -33 -30 -38 0
-6 -6 -15 -14 -21 -22 -17 -69 -155 -73 -217 -3 -31 1 -76 8 -100 7 -24 13
-46 14 -49 8 -35 25 -63 60 -101 37 -39 83 -109 72 -109 -2 0 -32 12 -68 26
-127 51 -344 124 -369 124 -14 -1 -34 -7 -44 -15 -26 -20 -12 -34 40 -41 84
-12 489 -134 531 -160 61 -38 154 -57 363 -74 69 -6 152 -17 185 -25 100 -24
284 -54 492 -80 227 -29 317 -34 321 -20 3 10 -39 17 -158 29 -30 3 -84 10
-120 16 -36 6 -110 18 -165 26 -95 15 -297 53 -395 74 -82 19 -94 21 -165 32
-38 6 -103 10 -143 9 -57 -2 -76 1 -90 15 -16 17 -16 17 4 12 13 -3 21 -1 21
8 0 8 -8 14 -18 14 -10 0 -25 7 -33 16 -9 8 -22 14 -29 11 -6 -2 -22 0 -34 4
-13 5 -34 4 -49 -1 -22 -9 -25 -8 -20 6 4 11 2 15 -8 11 -14 -6 -46 21 -46 39
0 6 -16 29 -36 52 -42 49 -34 55 18 12 24 -20 42 -28 54 -23 12 4 15 3 10 -5
-5 -8 1 -12 18 -12 16 0 26 -6 26 -15 0 -23 13 -18 43 16 15 17 20 29 12 26
-8 -4 -17 -2 -20 2 -6 10 35 22 47 15 5 -4 7 -13 4 -21 -4 -8 -1 -11 5 -8 6 4
17 -1 25 -11 14 -18 15 -18 8 5 -4 16 -3 21 5 17 6 -4 11 -2 11 3 0 6 -4 11
-10 11 -17 0 -11 13 20 48 l30 32 20 -20 c25 -25 46 -25 60 -1 8 16 5 23 -19
41 -18 12 -32 16 -36 10 -3 -5 -1 -10 6 -10 7 0 10 -2 7 -5 -3 -3 -16 -1 -29
4 -17 7 -19 10 -6 10 9 1 17 6 17 12 0 7 10 9 25 6 20 -3 25 -1 23 12 -4 27
11 42 32 31 13 -7 21 -7 25 0 6 10 5 12 -17 14 -7 1 -13 11 -13 24 0 12 -5 26
-12 30 -9 6 -6 11 8 20 17 11 20 10 17 -5 -2 -13 3 -18 19 -17 12 0 20 -3 17
-7 -5 -9 88 -5 103 4 5 3 17 -3 26 -14 33 -38 50 -18 21 26 -13 20 -20 22 -40
15 -18 -7 -24 -6 -24 4 0 8 14 13 37 14 21 1 39 6 41 12 2 6 10 3 17 -7 13
-17 14 -17 34 1 20 18 20 18 16 -12 -3 -25 0 -30 12 -25 10 4 14 2 9 -5 -3 -6
-1 -14 5 -18 8 -4 9 -3 5 4 -4 7 -2 12 3 12 18 0 26 -5 23 -13 -1 -5 7 -6 18
-2 15 5 26 1 35 -11 16 -22 11 -34 -16 -34 -10 0 -19 -4 -19 -10 0 -5 -11 -10
-25 -10 -35 0 -31 -17 8 -31 19 -6 44 -27 57 -45 12 -19 28 -34 36 -34 18 0
28 -20 16 -32 -7 -7 -14 -4 -21 10 -11 21 -51 20 -51 0 0 -6 -7 -5 -16 3 -14
11 -14 13 0 21 18 10 21 34 6 43 -5 3 -18 -3 -29 -14 -11 -11 -23 -16 -26 -12
-2 5 2 14 10 21 7 6 11 18 8 26 -7 19 -40 18 -50 -1 -8 -13 -11 -13 -29 2 -26
24 -44 27 -44 8 0 -8 3 -14 8 -13 15 5 54 -30 47 -42 -5 -9 -2 -10 12 -6 19 6
41 -13 91 -76 11 -14 11 -16 -6 -12 -10 3 -24 -1 -30 -9 -9 -11 -7 -18 8 -35
21 -23 16 -30 -27 -38 -15 -3 -29 -7 -31 -9 -2 -2 -13 4 -24 15 -11 10 -27 17
-36 15 -9 -2 -21 -4 -27 -4 -5 -1 6 -9 25 -20 19 -10 35 -25 35 -32 0 -17 55
-21 55 -5 0 6 5 3 11 -6 13 -23 32 -23 25 0 -6 19 72 84 132 109 18 7 30 17
27 22 -10 17 64 43 98 35 45 -10 56 -12 112 -19 123 -14 94 -30 -53 -30 -109
0 -121 -2 -171 -29 -79 -41 -119 -76 -127 -110 -7 -33 14 -57 50 -55 18 1 17
3 -6 12 -47 18 -31 27 48 27 45 0 73 4 69 10 -3 5 -13 6 -23 3 -11 -4 -14 -3
-7 4 15 16 63 24 70 13 3 -5 -1 -10 -9 -10 -9 0 -16 -4 -16 -10 0 -16 5 -14
125 45 62 30 121 55 132 56 13 1 11 3 -7 9 -20 6 -15 8 26 9 27 1 55 6 62 13
9 9 12 8 12 -4 0 -9 7 -18 15 -22 9 -3 15 0 15 9 0 13 27 15 176 13 l177 -3
19 26 c28 37 16 86 -45 176 -81 121 -386 418 -537 523 -46 31 -243 197 -336
282 -41 36 -100 87 -132 111 -60 47 -246 167 -258 167 -21 0 -318 210 -472
334 -90 72 -120 102 -112 110 8 8 19 6 40 -6 29 -16 30 -16 50 9 11 14 20 30
20 35 0 5 10 6 22 2 21 -6 22 -5 8 11 -14 17 -14 17 8 6 12 -6 22 -21 22 -31
0 -26 15 -25 48 2 17 13 20 19 9 15 -10 -4 -27 -1 -38 6 -15 11 -17 17 -6 31
11 14 15 15 31 3 16 -12 24 -11 57 5 42 20 59 23 59 9 0 -15 -20 -24 -51 -23
-22 0 -29 -4 -29 -19 0 -10 7 -19 15 -19 17 0 20 -16 5 -25 -19 -12 1 -24 29
-19 16 4 37 1 48 -4 20 -12 22 -11 -60 -31 -61 -14 -67 -14 -67 4 0 8 5 15 10
15 6 0 10 5 10 11 0 8 -4 9 -13 0 -8 -6 -17 -8 -20 -5 -3 4 -23 3 -43 -1 -32
-6 -35 -8 -22 -21 16 -16 166 -80 348 -149 147 -55 172 -62 243 -71 56 -6 57
-6 57 20 0 20 -7 27 -32 35 l-33 9 31 1 c36 1 55 29 29 44 -10 5 -14 16 -10
27 5 14 -1 20 -27 26 -32 7 -32 8 -8 14 20 5 27 15 34 54 7 42 6 50 -14 71
-12 13 -35 27 -51 30 -28 6 -50 25 -30 25 6 0 11 5 11 10 0 6 -6 10 -14 10 -8
0 -16 7 -20 15 -4 12 3 15 29 15 34 0 49 -20 25 -35 -18 -11 -10 -25 15 -25
13 0 28 -8 34 -17 9 -16 15 -12 56 31 25 27 44 54 42 60 -4 12 -86 40 -94 32
-3 -3 0 -13 8 -22 13 -16 10 -17 -40 -11 -29 4 -56 8 -58 11 -2 2 0 19 5 37 8
33 10 34 58 35 41 1 42 1 9 -3 -36 -4 -54 -16 -55 -36 0 -4 18 -4 41 -1 22 4
50 8 62 9 12 1 24 4 27 5 3 2 19 3 35 4 18 1 29 6 28 14 -2 6 2 13 7 13 6 1
15 3 20 4 6 1 15 3 20 4 6 0 10 10 10 21 0 17 -7 20 -57 22 -32 1 -71 2 -86 1
-17 -1 -27 3 -24 10 2 7 31 13 68 15 35 2 68 7 74 13 5 5 17 9 27 9 32 0 20
28 -14 32 -18 3 -54 11 -80 18 -42 12 -68 11 -245 -14 -221 -30 -287 -45 -385
-83 -66 -25 -69 -26 -145 -12 -62 11 -85 20 -113 45 -94 84 -125 94 -229 73
-50 -11 -62 -10 -119 11 -66 24 -77 36 -90 96 -4 21 -12 39 -17 41 -6 1 -30
-10 -54 -25z m-371 -26 c0 -2 -8 -10 -17 -17 -16 -13 -17 -12 -4 4 13 16 21
21 21 13z m324 -35 c14 -5 16 -10 8 -15 -7 -4 -22 0 -34 8 -24 17 -9 21 26 7z
m-80 -26 c3 -8 1 -15 -4 -15 -6 0 -10 7 -10 15 0 8 2 15 4 15 2 0 6 -7 10 -15z
m-124 -19 c0 -2 -7 -7 -16 -10 -8 -3 -12 -2 -9 4 6 10 25 14 25 6z m165 -76
c19 0 28 -17 14 -26 -7 -4 -9 -3 -6 3 4 6 -2 13 -13 16 -11 3 -20 11 -19 19 0
10 2 10 6 1 2 -7 11 -13 18 -13z m1187 -80 c-2 -3 -7 1 -9 8 -3 6 -9 10 -14 6
-5 -3 -9 -1 -9 5 0 17 25 19 31 2 4 -9 4 -18 1 -21z m179 15 c0 -5 -20 -13
-43 -16 -24 -3 -65 -9 -93 -12 l-50 -7 40 16 c22 9 56 18 75 21 19 3 37 7 40
9 7 8 31 -1 31 -11z m-673 -15 c2 0 0 -4 -3 -10 -9 -14 -55 -12 -90 5 -29 14
-28 15 30 10 33 -2 61 -4 63 -5z m592 -40 c-20 -13 -83 -13 -75 0 3 6 25 10
48 10 31 0 38 -3 27 -10z m-50 -30 c0 -5 -8 -10 -17 -10 -15 0 -16 2 -3 10 19
12 20 12 20 0z m-110 -64 c-14 -14 -31 11 -22 32 4 12 7 12 19 -4 9 -12 10
-21 3 -28z m40 34 c0 -5 -2 -10 -4 -10 -3 0 -8 5 -11 10 -3 6 -1 10 4 10 6 0
11 -4 11 -10z m-70 -34 c0 -8 -5 -18 -11 -22 -7 -4 0 -14 18 -25 26 -17 26
-19 6 -19 -12 0 -31 12 -42 26 -11 14 -25 23 -30 19 -7 -3 -8 0 -5 9 7 18 24
22 24 6 0 -5 5 -10 10 -10 6 0 10 7 10 15 0 8 5 15 10 15 6 0 10 -6 10 -14z
m319 5 c13 -8 13 -12 1 -26 -13 -16 -15 -16 -27 1 -23 32 -8 46 26 25z m-2024
-51 c-3 -5 -12 -10 -18 -10 -7 0 -6 4 3 10 19 12 23 12 15 0z m1668 -24 c-3
-5 -11 -2 -18 7 -7 9 -16 13 -20 9 -5 -4 -5 -1 -1 5 5 10 11 10 26 1 10 -7 16
-16 13 -22z m-76 -8 c-3 -8 -6 -5 -6 6 -1 11 2 17 5 13 3 -3 4 -12 1 -19z m30
-10 c-3 -8 -6 -5 -6 6 -1 11 2 17 5 13 3 -3 4 -12 1 -19z m-1690 -20 c-3 -8
-6 -5 -6 6 -1 11 2 17 5 13 3 -3 4 -12 1 -19z m173 18 c0 -2 -8 -10 -17 -17
-16 -13 -17 -12 -4 4 13 16 21 21 21 13z m1565 -6 c3 -6 -1 -7 -9 -4 -18 7
-21 14 -7 14 6 0 13 -4 16 -10z m315 -40 c12 -8 11 -10 -5 -9 -11 1 -33 5 -50
9 l-30 8 35 1 c19 0 42 -4 50 -9z m-1957 -31 c5 -3 2 -9 -7 -12 -12 -5 -16 0
-16 15 0 12 3 17 8 12 4 -5 11 -12 15 -15z m57 -14 c-7 -8 -16 -13 -20 -10 -4
3 -11 -2 -14 -11 -3 -8 -11 -12 -17 -9 -6 4 3 16 23 30 36 25 49 25 28 0z m70
21 c0 -2 -8 -10 -17 -17 -16 -13 -17 -12 -4 4 13 16 21 21 21 13z m1798 -16
c21 0 13 -16 -15 -29 -23 -11 -29 -10 -40 5 -16 22 -6 37 21 30 11 -3 27 -6
34 -6z m-1848 -21 c-7 -11 -14 -18 -17 -15 -3 3 0 12 7 21 18 21 23 19 10 -6z
m-176 -14 c-25 -19 -38 -19 -22 0 7 8 19 14 27 15 11 0 9 -4 -5 -15z m-74 2
c0 -2 -12 -14 -27 -28 l-28 -24 24 28 c23 25 31 32 31 24z m102 -19 c-7 -7
-12 -8 -12 -2 0 14 12 26 19 19 2 -3 -1 -11 -7 -17z m108 2 c-8 -15 -8 -20 1
-20 7 0 5 -8 -6 -20 -10 -11 -23 -20 -28 -20 -6 0 -2 9 7 19 12 13 14 21 6 26
-8 5 -5 11 7 21 24 18 26 17 13 -6z m70 16 c0 -2 -8 -10 -17 -17 -16 -13 -17
-12 -4 4 13 16 21 21 21 13z m887 -2 c-3 -3 -12 -4 -19 -1 -8 3 -5 6 6 6 11 1
17 -2 13 -5z m-837 -8 c0 -3 -4 -8 -10 -11 -5 -3 -10 -1 -10 4 0 6 5 11 10 11
6 0 10 -2 10 -4z m-260 -27 c-6 -11 -8 -33 -5 -50 5 -20 3 -29 -6 -29 -6 0
-18 -8 -25 -17 -7 -10 -14 -13 -14 -6 0 6 10 19 22 27 12 9 17 16 10 16 -9 0
-11 7 -7 21 6 19 5 20 -17 9 -15 -8 -11 -2 12 18 42 37 44 38 30 11z m230 17
c0 -2 -8 -10 -17 -17 -16 -13 -17 -12 -4 4 13 16 21 21 21 13z m1027 -2 c-3
-3 -12 -4 -19 -1 -8 3 -5 6 6 6 11 1 17 -2 13 -5z m-1197 -23 c0 -11 -4 -22
-9 -25 -5 -4 -7 3 -4 15 5 19 4 20 -16 8 -22 -14 -29 -39 -10 -39 5 0 7 -5 3
-12 -5 -8 -11 -4 -18 11 -8 20 -6 27 13 42 30 24 41 24 41 0z m26 -6 c-9 -9
-16 -13 -16 -8 0 12 22 34 28 28 2 -2 -3 -11 -12 -20z m1941 11 c4 -7 15 -16
23 -19 8 -3 0 -6 -19 -6 -29 -1 -32 -3 -21 -16 10 -12 10 -15 -3 -15 -25 0
-47 11 -41 21 3 5 0 9 -5 9 -6 0 -11 9 -11 20 0 16 7 20 35 20 18 0 38 -6 42
-14z m-757 -22 c0 -8 -9 -14 -20 -14 -18 0 -19 3 -10 20 12 22 30 18 30 -6z
m-1062 -20 c-7 -15 -14 -21 -16 -15 -2 7 2 18 8 26 18 22 21 18 8 -11z m54 -6
c-7 -7 -12 -8 -12 -2 0 14 12 26 19 19 2 -3 -1 -11 -7 -17z m905 16 c-3 -3
-12 -4 -19 -1 -8 3 -5 6 6 6 11 1 17 -2 13 -5z m140 0 c-3 -3 -12 -4 -19 -1
-8 3 -5 6 6 6 11 1 17 -2 13 -5z m-989 -23 c-7 -11 -16 -17 -20 -15 -5 3 -11
-2 -14 -11 -4 -8 -14 -14 -23 -13 -13 2 -15 -4 -13 -35 2 -22 -3 -46 -13 -59
-8 -13 -15 -17 -15 -11 0 7 5 15 10 18 18 11 10 23 -12 18 -20 -4 -21 -3 -5 7
25 16 23 44 -2 30 -30 -15 -38 -12 -14 5 14 10 20 22 17 33 -5 14 -4 15 5 2 7
-9 14 -11 19 -5 5 8 73 49 90 54 1 1 -3 -8 -10 -18z m-378 -6 c7 -8 10 -15 6
-15 -3 0 -8 0 -11 0 -3 0 -5 3 -4 6 0 4 -5 11 -13 15 -8 5 -9 9 -2 9 6 0 17
-7 24 -15z m1340 0 c-7 -8 -17 -15 -22 -15 -11 0 14 29 26 30 5 0 3 -7 -4 -15z
m-1238 -17 c-7 -7 -12 -8 -12 -2 0 14 12 26 19 19 2 -3 -1 -11 -7 -17z m52 7
c-6 -15 -44 -37 -44 -26 0 6 5 13 10 16 6 4 8 10 6 14 -3 3 4 7 14 7 10 0 16
-5 14 -11z m1260 0 c-8 -20 1 -19 22 2 13 13 16 14 12 3 -3 -8 6 -25 19 -37
12 -12 23 -27 23 -33 0 -5 -14 3 -31 19 -30 29 -54 31 -72 7 -4 -6 -6 -1 -4
12 2 13 10 28 18 33 19 12 19 11 13 -6z m-1025 -27 c-8 -14 -14 -18 -17 -10
-4 13 17 46 25 38 3 -2 -1 -15 -8 -28z m-311 11 c-2 -6 -7 -10 -12 -9 -4 1
-14 -7 -22 -17 -14 -17 -14 -17 -5 4 9 18 21 28 39 32 2 1 2 -4 0 -10z m176
-4 c-4 -8 -13 -15 -22 -15 -13 0 -12 3 4 15 24 18 25 18 18 0z m896 1 c0 -3
-4 -8 -10 -11 -5 -3 -10 -1 -10 4 0 6 5 11 10 11 6 0 10 -2 10 -4z m-1050 -12
c0 -3 -19 -23 -41 -45 -41 -40 -42 -40 -60 -20 -23 24 -24 31 -4 31 8 0 14 -4
13 -9 -3 -9 1 -11 29 -11 9 0 13 3 10 6 -4 4 6 18 21 30 29 26 32 27 32 18z
m254 -17 c-3 -9 -12 -13 -20 -10 -12 4 -11 8 3 18 21 16 26 14 17 -8z m666 -1
c0 -2 -7 -9 -15 -16 -13 -11 -14 -10 -9 4 5 14 24 23 24 12z m160 0 c0 -3 -4
-8 -10 -11 -5 -3 -10 -1 -10 4 0 6 5 11 10 11 6 0 10 -2 10 -4z m140 0 c0 -3
-4 -8 -10 -11 -5 -3 -10 -1 -10 4 0 6 5 11 10 11 6 0 10 -2 10 -4z m40 -6 c0
-5 -4 -10 -10 -10 -5 0 -10 5 -10 10 0 6 5 10 10 10 6 0 10 -4 10 -10z m83 3
c-7 -2 -21 -2 -30 0 -10 3 -4 5 12 5 17 0 24 -2 18 -5z m-178 -13 c-3 -5 -10
-10 -16 -10 -5 0 -9 5 -9 10 0 6 7 10 16 10 8 0 12 -4 9 -10z m-902 -20 c-3
-12 -8 -18 -11 -15 -3 3 -14 -2 -24 -12 -10 -9 -18 -13 -18 -9 0 6 49 56 56
56 1 0 0 -9 -3 -20z m60 -4 c-6 -10 -13 -12 -23 -6 -13 8 -12 10 3 10 9 0 17
5 17 12 0 6 3 9 6 5 3 -3 2 -12 -3 -21z m677 20 c0 -2 -7 -7 -16 -10 -8 -3
-12 -2 -9 4 6 10 25 14 25 6z m357 -2 c-3 -3 -12 -4 -19 -1 -8 3 -5 6 6 6 11
1 17 -2 13 -5z m78 -15 c-4 -5 1 -9 9 -9 9 0 15 -3 15 -7 -3 -19 2 -33 12 -33
5 0 7 6 3 13 -4 6 2 3 14 -7 26 -22 29 -46 6 -46 -11 0 -14 6 -10 23 3 12 3
16 0 10 -9 -20 -22 -15 -38 15 -8 15 -15 21 -16 15 0 -18 -17 -16 -24 3 -3 8
0 21 7 28 13 15 31 11 22 -5z m-975 -10 c-7 -11 -14 -18 -17 -15 -3 3 0 12 7
21 18 21 23 19 10 -6z m755 11 c-3 -5 -11 -10 -16 -10 -6 0 -7 5 -4 10 3 6 11
10 16 10 6 0 7 -4 4 -10z m-1150 -35 c-28 -27 -39 -28 -30 -4 5 14 46 38 54
32 2 -1 -8 -14 -24 -28z m85 31 c0 -11 -51 -59 -56 -53 -4 3 6 17 21 31 28 26
35 30 35 22z m210 -26 c-6 -12 -14 -19 -17 -17 -2 3 1 15 7 27 6 12 14 19 17
17 2 -3 -1 -15 -7 -27z m810 26 c0 -3 -4 -8 -10 -11 -5 -3 -10 -1 -10 4 0 6 5
11 10 11 6 0 10 -2 10 -4z m210 -6 c0 -5 -7 -10 -16 -10 -8 0 -12 5 -9 10 3 6
10 10 16 10 5 0 9 -4 9 -10z m-95 -10 c-3 -5 -10 -10 -16 -10 -5 0 -9 5 -9 10
0 6 7 10 16 10 8 0 12 -4 9 -10z m-805 -25 c-7 -9 -15 -13 -18 -10 -3 2 1 11
8 20 7 9 15 13 18 10 3 -2 -1 -11 -8 -20z m760 21 c0 -3 -4 -8 -10 -11 -5 -3
-10 -1 -10 4 0 6 5 11 10 11 6 0 10 -2 10 -4z m-920 -27 c-7 -11 -14 -19 -16
-16 -7 7 7 37 17 37 6 0 5 -9 -1 -21z m1020 17 c0 -11 -19 -15 -25 -6 -3 5 1
10 9 10 9 0 16 -2 16 -4z m-1066 -36 c5 0 5 8 1 18 -5 14 -4 15 6 5 10 -10 10
-16 1 -25 -15 -15 -16 -38 -1 -38 7 0 18 8 25 18 12 15 13 14 4 -11 -8 -22 -7
-29 6 -34 8 -3 22 3 30 13 16 20 8 -2 -9 -24 -8 -10 -15 -9 -34 3 -13 9 -28
13 -34 9 -6 -3 -10 0 -8 7 1 8 1 21 0 29 -1 13 -3 13 -12 0 -9 -13 -10 -12 -5
3 7 23 -3 49 -17 40 -6 -4 -7 -1 -3 6 6 9 12 9 25 -3 10 -9 21 -16 25 -16z
m134 17 c-10 -8 -14 -22 -11 -39 3 -15 0 -29 -8 -33 -9 -6 -10 -1 -5 18 5 21
3 25 -9 21 -9 -4 -15 -1 -15 8 0 20 21 38 45 38 18 -1 18 -2 3 -13z m872 9 c0
-3 -4 -8 -10 -11 -5 -3 -10 -1 -10 4 0 6 5 11 10 11 6 0 10 -2 10 -4z m150
-16 c0 -5 -4 -10 -10 -10 -5 0 -10 5 -10 10 0 6 5 10 10 10 6 0 10 -4 10 -10z
m-440 -4 c0 -2 -7 -6 -15 -10 -8 -3 -15 -1 -15 4 0 6 7 10 15 10 8 0 15 -2 15
-4z m70 -6 c0 -5 -4 -10 -10 -10 -5 0 -10 5 -10 10 0 6 5 10 10 10 6 0 10 -4
10 -10z m325 0 c-3 -5 -11 -10 -16 -10 -6 0 -7 5 -4 10 3 6 11 10 16 10 6 0 7
-4 4 -10z m-1044 -23 c-10 -9 -11 -8 -5 6 3 10 9 15 12 12 3 -3 0 -11 -7 -18z
m809 19 c0 -3 -4 -8 -10 -11 -5 -3 -10 -1 -10 4 0 6 5 11 10 11 6 0 10 -2 10
-4z m449 -47 c10 0 12 -2 4 -6 -23 -9 -13 -23 11 -17 14 3 37 -1 53 -9 15 -8
45 -23 66 -33 21 -11 48 -29 59 -41 12 -13 33 -23 47 -23 14 0 40 -12 56 -28
37 -33 146 -117 154 -117 13 -2 66 -41 68 -50 1 -6 -10 -12 -24 -13 -18 -1
-24 2 -20 13 4 9 1 12 -9 8 -7 -3 -14 0 -14 6 0 6 -14 11 -32 11 -17 0 -28 3
-25 7 12 11 -13 31 -34 26 -11 -3 -19 -2 -17 3 4 11 -34 48 -53 52 -8 2 -18
10 -22 18 -4 8 -13 14 -20 14 -7 0 -6 -4 3 -10 8 -5 11 -12 7 -16 -9 -9 -47
30 -48 48 0 10 -2 10 -6 1 -2 -7 -11 -13 -19 -13 -9 0 -13 4 -9 9 8 13 -38 57
-61 59 -11 1 -32 2 -49 3 -30 1 -30 1 -5 10 20 8 22 12 10 19 -8 5 -17 5 -20
0 -7 -11 -33 4 -28 16 1 5 -7 10 -18 12 -12 2 -26 13 -32 25 -6 12 -11 16 -11
10 -1 -7 -9 -13 -18 -12 -11 0 -13 3 -5 6 6 2 12 12 12 21 0 14 -2 15 -10 2
-5 -8 -13 -11 -17 -6 -4 5 -3 11 4 13 7 2 9 11 6 19 -3 9 7 4 22 -10 15 -14
35 -26 44 -27z m-1378 14 c-8 -15 -10 -15 -11 -2 0 17 10 32 18 25 2 -3 -1
-13 -7 -23z m1246 21 c-3 -3 -12 -4 -19 -1 -8 3 -5 6 6 6 11 1 17 -2 13 -5z
m-1332 -33 c-3 -12 -13 -21 -20 -21 -8 0 -26 -12 -40 -26 -14 -14 -29 -24 -31
-21 -3 3 9 18 27 34 18 15 39 36 48 45 18 21 25 17 16 -11z m1245 25 c0 -2 -7
-6 -15 -10 -8 -3 -15 -1 -15 4 0 6 7 10 15 10 8 0 15 -2 15 -4z m-850 -10 c0
-3 -4 -8 -10 -11 -5 -3 -10 -1 -10 4 0 6 5 11 10 11 6 0 10 -2 10 -4z m790 -6
c0 -5 -5 -10 -11 -10 -5 0 -7 5 -4 10 3 6 8 10 11 10 2 0 4 -4 4 -10z m-890
-9 c0 -5 -7 -14 -15 -21 -12 -10 -15 -10 -15 2 0 8 3 18 7 21 9 10 23 9 23 -2z
m131 -24 c-16 -16 -25 -1 -10 16 8 8 16 11 18 5 2 -5 -2 -15 -8 -21z m370 10
c-13 -13 -26 -3 -16 12 3 6 11 8 17 5 6 -4 6 -10 -1 -17z m229 19 c0 -3 -4 -8
-10 -11 -5 -3 -10 -1 -10 4 0 6 5 11 10 11 6 0 10 -2 10 -4z m300 0 c0 -3 -4
-8 -10 -11 -5 -3 -10 -1 -10 4 0 6 5 11 10 11 6 0 10 -2 10 -4z m-255 -16 c-3
-5 -12 -10 -18 -10 -7 0 -6 4 3 10 19 12 23 12 15 0z m35 6 c0 -3 -4 -8 -10
-11 -5 -3 -10 -1 -10 4 0 6 5 11 10 11 6 0 10 -2 10 -4z m150 0 c0 -2 -7 -7
-16 -10 -8 -3 -12 -2 -9 4 6 10 25 14 25 6z m-1140 -15 c0 -6 -4 -13 -10 -16
-5 -3 -10 -1 -10 4 0 19 -18 12 -23 -10 -3 -12 -10 -18 -16 -14 -6 3 -11 0
-11 -7 0 -12 -68 -53 -76 -45 -2 2 22 24 53 50 55 43 93 59 93 38z m348 -16
c-6 -14 -13 -23 -15 -21 -5 5 15 46 22 46 3 0 -1 -11 -7 -25z m466 10 c-4 -8
-11 -15 -16 -15 -6 0 -5 6 2 15 7 8 14 15 16 15 2 0 1 -7 -2 -15z m456 7 c0
-5 -7 -9 -15 -9 -8 0 -15 4 -15 9 0 4 7 8 15 8 8 0 15 -4 15 -8z m-1137 -23
c-6 -23 -45 -42 -67 -33 -8 3 -19 -3 -26 -16 -10 -19 -59 -46 -69 -38 -2 2 -8
-8 -13 -21 -6 -18 -12 -21 -20 -13 -12 12 5 42 24 42 5 0 30 14 56 32 26 18
54 33 63 33 9 1 24 9 34 18 21 22 24 21 18 -4z m137 0 c-7 -11 -14 -18 -17
-15 -3 3 0 12 7 21 18 21 23 19 10 -6z m905 11 c-3 -5 -12 -10 -18 -10 -7 0
-6 4 3 10 19 12 23 12 15 0z m-400 -10 c3 -5 1 -10 -4 -10 -6 0 -11 5 -11 10
0 6 2 10 4 10 3 0 8 -4 11 -10z m255 2 c0 -4 -15 -9 -32 -10 -25 -2 -29 0 -18
8 18 12 50 13 50 2z m105 -2 c-3 -5 -11 -10 -16 -10 -6 0 -7 5 -4 10 3 6 11
10 16 10 6 0 7 -4 4 -10z m-1135 -29 c-6 -12 -17 -21 -25 -21 -7 0 -15 -5 -17
-12 -2 -6 -10 -8 -17 -4 -15 10 4 36 25 36 8 0 14 5 14 11 0 5 5 7 10 4 6 -3
10 -1 10 6 0 7 3 10 6 7 3 -4 1 -16 -6 -27z m1270 19 c0 -5 -5 -10 -11 -10 -5
0 -7 5 -4 10 3 6 8 10 11 10 2 0 4 -4 4 -10z m-333 -22 c-3 -8 -6 -5 -6 6 -1
11 2 17 5 13 3 -3 4 -12 1 -19z m-637 -2 c0 -8 -9 -14 -19 -13 -11 0 -17 5
-15 9 3 5 10 6 15 3 5 -4 9 -1 9 4 0 6 2 11 5 11 3 0 5 -6 5 -14z m137 -11
c-7 -14 -15 -25 -19 -25 -4 0 -2 11 4 25 6 14 15 25 19 25 4 0 2 -11 -4 -25z
m463 15 c0 -5 -5 -10 -11 -10 -5 0 -7 5 -4 10 3 6 8 10 11 10 2 0 4 -4 4 -10z
m145 0 c-3 -5 -11 -10 -16 -10 -6 0 -7 5 -4 10 3 6 11 10 16 10 6 0 7 -4 4
-10z m305 6 c0 -3 -4 -8 -10 -11 -5 -3 -10 -1 -10 4 0 6 5 11 10 11 6 0 10 -2
10 -4z m-545 -16 c-3 -5 -10 -10 -16 -10 -5 0 -9 5 -9 10 0 6 7 10 16 10 8 0
12 -4 9 -10z m190 0 c-3 -5 -14 -10 -23 -9 -14 0 -13 2 3 9 27 11 27 11 20 0z
m-912 -30 c-3 -11 -9 -20 -13 -20 -5 0 -15 -3 -24 -6 -27 -10 -18 15 12 30 15
8 28 15 29 16 0 0 -1 -9 -4 -20z m982 10 c-3 -5 -12 -10 -18 -10 -7 0 -6 4 3
10 19 12 23 12 15 0z m295 0 c0 -5 -5 -10 -11 -10 -5 0 -7 5 -4 10 3 6 8 10
11 10 2 0 4 -4 4 -10z m-1444 -26 c-4 -9 -9 -15 -11 -12 -3 3 -3 13 1 22 4 9
9 15 11 12 3 -3 3 -13 -1 -22z m468 2 c-3 -9 -15 -16 -25 -16 -10 0 -18 -3
-16 -7 1 -5 -1 -8 -4 -8 -4 0 -16 -9 -28 -19 -12 -11 -21 -16 -21 -12 0 10 58
58 65 54 4 -2 11 5 17 15 12 22 21 17 12 -7z m246 -6 c-10 -18 -9 -24 1 -31 8
-5 10 -9 5 -9 -5 0 -2 -8 5 -17 8 -10 9 -14 2 -10 -6 4 -14 3 -18 -3 -11 -17
-25 -11 -25 11 0 11 5 17 10 14 6 -3 10 -1 10 4 0 6 -4 11 -10 11 -5 0 -10 7
-10 15 0 8 5 15 11 15 5 0 8 4 5 9 -4 5 0 11 6 14 19 6 21 1 8 -23z m282 8
c-6 -6 -15 -8 -19 -4 -4 4 -1 11 7 16 19 12 27 3 12 -12z m-378 -12 c-3 -9
-10 -16 -15 -16 -5 0 -4 9 3 20 14 22 21 20 12 -4z m-690 2 c-3 -4 -14 -8 -25
-8 -11 0 -18 4 -15 8 2 4 14 8 25 8 11 0 17 -4 15 -8z m29 -33 c-33 -26 -44
-15 -16 16 23 25 29 28 31 14 2 -9 -5 -23 -15 -30z m577 32 c0 -7 -9 -18 -20
-25 -17 -10 -20 -10 -20 6 0 10 3 22 7 25 11 12 33 8 33 -6z m650 9 c0 -3 -4
-8 -10 -11 -5 -3 -10 -1 -10 4 0 6 5 11 10 11 6 0 10 -2 10 -4z m-419 -18 c1
-7 2 -26 3 -41 2 -15 -1 -30 -6 -33 -4 -3 -5 -10 -2 -16 5 -7 2 -8 -5 -3 -8 4
-10 17 -7 31 4 13 2 24 -2 24 -5 0 -7 11 -4 25 4 26 21 35 23 13z m529 8 c0
-2 -7 -7 -16 -10 -8 -3 -12 -2 -9 4 6 10 25 14 25 6z m-1201 -36 c-7 -5 -16
-7 -20 -4 -4 2 -10 -4 -14 -13 -3 -10 -2 -19 3 -21 17 -5 1 -52 -18 -52 -10 0
-20 -6 -23 -12 -2 -7 -6 7 -8 31 -5 43 -4 45 40 73 29 18 47 24 50 17 2 -6 -3
-15 -10 -19z m485 18 c-17 -30 -37 -46 -50 -41 -8 3 -22 -1 -32 -8 -15 -13
-16 -12 -3 4 7 9 19 17 25 17 6 0 19 9 29 20 18 22 43 28 31 8z m359 -13 c-7
-21 -13 -19 -13 6 0 11 4 18 10 14 5 -3 7 -12 3 -20z m307 15 c-8 -5 -19 -10
-25 -10 -5 0 -3 5 5 10 8 5 20 10 25 10 6 0 3 -5 -5 -10z m-1240 -21 c0 -15
-5 -19 -15 -15 -9 3 -15 0 -15 -9 0 -8 -15 -22 -32 -32 -25 -13 -29 -18 -16
-21 10 -2 15 -9 11 -18 -3 -9 1 -14 12 -14 9 0 13 5 10 10 -10 16 4 47 24 53
15 4 18 -1 17 -31 -2 -58 -47 -70 -80 -20 -15 24 -11 73 5 62 5 -3 9 0 9 5 0
6 6 11 13 11 8 0 22 9 32 20 23 25 25 25 25 -1z m459 -11 c-8 -14 -14 -18 -17
-10 -4 13 17 46 25 38 3 -2 -1 -15 -8 -28z m1088 26 c-3 -3 -12 -4 -19 -1 -8
3 -5 6 6 6 11 1 17 -2 13 -5z m43 -2 c0 -5 -7 -9 -15 -9 -8 0 -15 4 -15 9 0 4
7 8 15 8 8 0 15 -4 15 -8z m-500 -6 c0 -3 -4 -8 -10 -11 -5 -3 -10 -1 -10 4 0
6 5 11 10 11 6 0 10 -2 10 -4z m100 0 c0 -3 -4 -8 -10 -11 -5 -3 -10 -1 -10 4
0 6 5 11 10 11 6 0 10 -2 10 -4z m-46 -21 c-4 -8 -11 -15 -16 -15 -6 0 -5 6 2
15 7 8 14 15 16 15 2 0 1 -7 -2 -15z m-733 -34 c-13 -13 -21 -16 -24 -8 -2 7
-5 -7 -5 -31 -1 -47 18 -54 28 -11 6 24 6 24 14 -4 8 -32 -11 -68 -24 -47 -5
7 -10 2 -14 -14 -3 -14 -11 -26 -16 -26 -14 0 -12 34 2 48 9 9 9 12 1 12 -7 0
-11 14 -10 35 2 25 11 43 32 61 33 29 47 16 16 -15z m389 29 c0 -5 -4 -10 -10
-10 -5 0 -10 5 -10 10 0 6 5 10 10 10 6 0 10 -4 10 -10z m234 -5 c-4 -8 -8
-15 -10 -15 -2 0 -4 7 -4 15 0 8 4 15 10 15 5 0 7 -7 4 -15z m611 5 c3 -5 -1
-10 -9 -10 -9 0 -16 5 -16 10 0 6 4 10 9 10 6 0 13 -4 16 -10z m-1045 -4 c0
-3 -4 -8 -10 -11 -5 -3 -10 -1 -10 4 0 6 5 11 10 11 6 0 10 -2 10 -4z m-440
-27 c-7 -11 -14 -18 -17 -15 -8 8 5 36 17 36 7 0 7 -6 0 -21z m390 -9 c-10
-18 -9 -24 1 -32 11 -7 11 -11 2 -15 -18 -7 -16 -28 4 -44 9 -8 14 -9 10 -3
-6 11 53 48 61 39 11 -10 -11 -78 -33 -104 -14 -16 -25 -34 -25 -41 0 -10 -3
-10 -14 -1 -12 10 -15 8 -19 -11 l-4 -23 -2 23 c0 13 6 25 17 29 26 10 38 25
52 66 18 47 9 55 -23 23 -15 -14 -22 -26 -17 -26 10 0 1 -38 -11 -46 -4 -2 -8
8 -8 23 0 15 -2 55 -6 87 -3 37 -1 64 6 73 17 20 23 8 9 -17z m286 13 c-5 -11
-2 -14 10 -9 12 5 15 2 9 -11 -16 -39 -18 -56 -7 -49 7 4 12 2 12 -4 0 -25
-25 -2 -28 26 -4 37 -19 53 -28 31 -8 -21 -34 -22 -34 -2 0 16 21 30 51 32 15
1 19 -2 15 -14z m80 5 c4 -6 3 -8 -3 -5 -6 4 -13 -2 -16 -13 -5 -20 -27 -28
-27 -11 0 9 27 41 35 41 2 0 7 -5 11 -12z m178 -3 c-4 -8 -10 -15 -15 -15 -5
0 -9 7 -9 15 0 8 7 15 15 15 9 0 12 -6 9 -15z m-630 -20 c-7 -28 7 -33 26 -10
18 22 33 19 20 -4 -5 -11 -7 -27 -4 -35 4 -10 1 -16 -8 -16 -8 0 -20 -11 -26
-25 -7 -16 -17 -23 -27 -19 -10 4 -15 0 -15 -10 0 -9 -8 -16 -20 -16 -10 0
-24 -8 -29 -17 -10 -17 -10 -17 -11 0 0 9 4 17 9 17 4 0 19 10 32 23 14 12 36
29 49 39 l25 16 -34 31 c-25 22 -30 31 -18 31 9 0 17 5 17 10 0 6 5 10 10 10
6 0 8 -11 4 -25z m141 -15 c-10 -11 -20 -18 -23 -15 -3 3 3 14 13 25 10 11 20
18 23 15 3 -3 -3 -14 -13 -25z m365 14 c0 -8 -4 -12 -10 -9 -5 3 -10 2 -10 -3
0 -6 -6 -12 -14 -15 -18 -7 -14 22 5 34 21 13 29 11 29 -7z m280 1 c-7 -9 -15
-13 -17 -11 -7 7 7 26 19 26 6 0 6 -6 -2 -15z m-210 -10 c0 -8 -9 -15 -20 -15
-11 0 -23 -7 -26 -15 -7 -18 -28 -21 -22 -3 3 9 49 43 66 47 1 1 2 -6 2 -14z
m-360 1 c0 -2 -8 -10 -17 -17 -16 -13 -17 -12 -4 4 13 16 21 21 21 13z m414
-21 c-9 -14 -21 -22 -27 -18 -6 4 -1 13 12 25 31 24 35 23 15 -7z m311 5 c-3
-5 -12 -10 -18 -10 -7 0 -6 4 3 10 19 12 23 12 15 0z m225 6 c0 -3 -4 -8 -10
-11 -5 -3 -10 -1 -10 4 0 6 5 11 10 11 6 0 10 -2 10 -4z m-893 -28 c-3 -8 -6
-5 -6 6 -1 11 2 17 5 13 3 -3 4 -12 1 -19z m163 3 c-12 -23 -30 -36 -30 -22 0
21 13 41 26 41 11 0 12 -4 4 -19z m-99 -19 c-8 -15 -8 -21 1 -24 8 -3 8 -9 1
-23 -10 -18 -11 -17 -21 2 -12 22 -5 66 9 57 5 -3 9 0 9 7 0 7 3 10 6 7 3 -4
1 -15 -5 -26z m149 -7 c-14 -17 -30 -20 -30 -5 0 6 7 10 15 10 8 0 14 3 14 8
-3 16 3 26 8 14 3 -7 -1 -19 -7 -27z m196 16 c0 -20 -42 -36 -52 -20 -3 5 1 9
9 9 8 0 20 7 27 15 16 19 16 19 16 -4z m-106 -6 c0 -8 -4 -15 -10 -15 -5 0
-10 7 -10 15 0 8 5 15 10 15 6 0 10 -7 10 -15z m-824 -35 c0 -11 -4 -20 -8
-20 -4 0 -8 9 -8 20 0 11 4 20 8 20 4 0 8 -9 8 -20z m440 -16 c-13 -12 -16
-12 -16 -2 0 19 24 42 28 28 2 -5 -4 -17 -12 -26z m44 21 c0 -8 -4 -15 -10
-15 -5 0 -7 7 -4 15 4 8 8 15 10 15 2 0 4 -7 4 -15z m145 6 c3 -5 1 -12 -5
-16 -5 -3 -10 1 -10 9 0 18 6 21 15 7z m65 -11 c0 -11 -7 -20 -15 -20 -18 0
-19 6 -2 25 16 19 17 18 17 -5z m90 5 c0 -8 -4 -15 -10 -15 -5 0 -10 7 -10 15
0 8 5 15 10 15 6 0 10 -7 10 -15z m270 11 c0 -2 -7 -9 -15 -16 -13 -11 -14
-10 -9 4 5 14 24 23 24 12z m165 -16 c-3 -5 -12 -10 -18 -10 -7 0 -6 4 3 10
19 12 23 12 15 0z m-923 -12 c-17 -17 -15 -38 3 -38 18 0 19 -9 1 -33 -14 -18
-33 -7 -22 12 4 5 3 17 0 26 -6 14 -10 10 -22 -16 -13 -31 -15 -32 -22 -14 -7
16 -2 26 23 48 30 26 63 39 39 15z m435 -13 c-23 -22 -33 -18 -12 5 10 11 20
18 23 16 2 -3 -3 -12 -11 -21z m103 5 c-6 -11 -15 -18 -21 -15 -15 10 -11 23
9 28 9 3 18 5 20 6 1 0 -2 -8 -8 -19z m280 16 c0 -2 -9 -6 -20 -9 -11 -3 -18
-1 -14 4 5 9 34 13 34 5z m-619 -49 c-8 -8 -11 -5 -11 9 0 27 14 41 18 19 2
-9 -1 -22 -7 -28z m40 -5 c-11 -8 -21 -25 -21 -38 0 -12 -5 -26 -10 -29 -6 -4
-7 -11 -4 -17 4 -5 14 2 24 17 13 19 19 23 23 12 3 -7 -6 -22 -19 -32 -13 -10
-24 -26 -24 -36 0 -11 -5 -19 -11 -19 -6 0 -9 6 -6 14 6 14 -10 36 -25 36 -5
0 -13 -10 -18 -22 -8 -22 -9 -22 -9 5 -1 15 4 27 9 27 6 0 12 0 15 0 11 0 45
41 45 55 0 21 44 69 49 54 2 -7 -6 -19 -18 -27z m749 34 c0 -2 -7 -7 -16 -10
-8 -3 -12 -2 -9 4 6 10 25 14 25 6z m434 -11 c-4 -8 -11 -15 -16 -15 -6 0 -5
6 2 15 7 8 14 15 16 15 2 0 1 -7 -2 -15z m-767 -22 c-9 -9 -20 -13 -24 -9 -4
4 1 14 11 22 25 18 35 8 13 -13z m-535 -8 c-5 -31 -22 -44 -22 -18 0 15 17 43
26 43 1 0 -1 -11 -4 -25z m808 15 c0 -5 -4 -10 -10 -10 -5 0 -10 5 -10 10 0 6
5 10 10 10 6 0 10 -4 10 -10z m-140 -10 c0 -5 -5 -10 -11 -10 -5 0 -7 5 -4 10
3 6 8 10 11 10 2 0 4 -4 4 -10z m110 6 c0 -3 -4 -8 -10 -11 -5 -3 -10 -1 -10
4 0 6 5 11 10 11 6 0 10 -2 10 -4z m-1135 -16 c3 -5 1 -10 -4 -10 -6 0 -11 5
-11 10 0 6 2 10 4 10 3 0 8 -4 11 -10z m506 -17 c-12 -20 -14 -14 -5 12 4 9 9
14 11 11 3 -2 0 -13 -6 -23z m219 23 c0 -3 -13 -11 -30 -20 -32 -15 -33 -15
-25 6 5 12 55 24 55 14z m-320 -36 c-6 -12 -18 -19 -25 -16 -14 5 -28 -31 -28
-74 l0 -25 -4 25 -5 24 -17 -23 c-18 -23 -18 -23 -18 25 1 27 2 39 4 27 6 -31
16 -29 31 7 8 17 18 30 24 30 5 0 16 7 25 15 20 21 28 12 13 -15z m585 20 c3
-5 1 -10 -4 -10 -6 0 -11 5 -11 10 0 6 2 10 4 10 3 0 8 -4 11 -10z m98 3 c-7
-2 -19 -2 -25 0 -7 3 -2 5 12 5 14 0 19 -2 13 -5z m-499 -22 c-5 -3 -18 -23
-28 -44 -17 -32 -18 -40 -6 -62 10 -20 11 -28 2 -37 -9 -9 -12 -6 -12 14 0 14
-7 31 -15 38 -13 11 -18 10 -30 -6 -8 -10 -15 -25 -15 -31 0 -18 -20 -16 -20
2 0 14 44 101 61 119 10 12 -1 -36 -13 -50 -5 -7 -3 -14 6 -17 13 -5 36 30 36
56 0 18 21 37 33 30 5 -3 5 -8 1 -12z m39 -15 c-3 -15 -10 -23 -18 -20 -7 3
-15 -2 -19 -12 -5 -12 -2 -15 10 -10 11 4 15 2 11 -6 -14 -38 -18 -60 -11 -55
5 3 9 -20 10 -51 0 -32 -1 -45 -3 -29 -3 15 -9 27 -14 27 -6 0 -10 10 -9 23 1
12 1 24 0 27 -2 3 -4 23 -5 45 -2 33 2 44 24 62 14 12 27 22 27 23 1 0 -1 -11
-3 -24z m106 2 c-9 -16 -14 -19 -17 -9 -2 7 2 17 9 22 20 13 21 11 8 -13z
m398 6 c-3 -3 -12 -4 -19 -1 -8 3 -5 6 6 6 11 1 17 -2 13 -5z m118 -4 c-3 -5
-12 -10 -18 -10 -7 0 -6 4 3 10 19 12 23 12 15 0z m-35 -10 c0 -5 -9 -10 -21
-10 -11 0 -17 5 -14 10 3 6 13 10 21 10 8 0 14 -4 14 -10z m-433 -22 c-3 -8
-6 -5 -6 6 -1 11 2 17 5 13 3 -3 4 -12 1 -19z m-702 -24 c-18 -13 -45 -9 -45
7 0 5 7 9 15 9 8 0 15 5 15 11 0 8 5 7 16 -2 14 -12 14 -14 -1 -25z m205 6
c-24 -16 -31 -11 -19 11 8 16 14 18 22 10 9 -9 8 -14 -3 -21z m390 13 c0 -9
-3 -13 -7 -10 -3 4 -12 2 -20 -4 -10 -9 -13 -8 -13 4 0 9 8 18 18 20 9 3 18 5
20 6 1 0 2 -6 2 -16z m463 -1 c-10 -11 -22 -17 -27 -14 -5 3 -1 11 9 19 27 19
38 16 18 -5z m-336 -23 c-8 -21 -13 -26 -15 -15 -2 10 2 23 8 31 18 22 20 18
7 -16z m219 5 c-4 -9 -9 -15 -11 -12 -3 3 -3 13 1 22 4 9 9 15 11 12 3 -3 3
-13 -1 -22z m-122 1 c-4 -8 -8 -15 -10 -15 -2 0 -4 7 -4 15 0 8 4 15 10 15 5
0 7 -7 4 -15z m-192 -7 c-17 -17 -15 -31 3 -24 18 7 19 -3 1 -26 -19 -26 -23
-22 -21 20 3 44 2 42 17 42 9 0 9 -3 0 -12z m-49 -28 c-8 -17 -18 -28 -23 -25
-13 8 0 43 19 48 9 3 17 5 18 6 1 0 -5 -13 -14 -29z m200 10 c-3 -11 -8 -20
-12 -20 -4 0 -15 -13 -24 -30 -10 -16 -25 -30 -34 -30 -10 0 -13 -6 -9 -16 3
-8 2 -12 -4 -9 -6 3 -10 1 -10 -5 0 -6 -4 -9 -8 -6 -4 2 -9 30 -10 60 -2 41 1
56 11 56 7 0 13 -10 14 -22 3 -35 27 -42 36 -10 5 16 18 33 30 39 12 6 23 11
24 12 0 0 -1 -8 -4 -19z m75 -12 c-3 -29 0 -33 21 -34 24 -1 44 -22 35 -36
-10 -16 -44 -8 -45 10 0 14 -2 13 -9 -4 -4 -12 -15 -24 -23 -27 -12 -4 -14 0
-11 21 3 15 7 39 8 54 7 52 29 67 24 16z m-417 -31 c-8 -8 -11 -5 -11 9 0 27
14 41 18 19 2 -9 -1 -22 -7 -28z m629 13 c-18 -11 -24 -6 -16 16 5 14 9 15 19
5 9 -9 9 -14 -3 -21z m-737 0 c3 -12 0 -20 -8 -20 -8 0 -11 8 -8 20 3 11 7 20
8 20 1 0 5 -9 8 -20z m622 10 c-3 -5 -11 -10 -16 -10 -6 0 -7 5 -4 10 3 6 11
10 16 10 6 0 7 -4 4 -10z m55 1 c0 -6 -5 -13 -10 -16 -13 -8 -3 -25 13 -21 7
1 9 1 5 -1 -5 -3 -8 -15 -8 -28 0 -21 -26 -42 -38 -30 -3 3 0 5 6 5 6 0 9 17
7 43 -1 23 -1 45 2 50 6 10 23 9 23 -2z m-747 -38 c-7 -18 7 -16 22 3 11 16
12 16 18 0 5 -12 0 -19 -16 -25 -12 -5 -21 -11 -19 -15 5 -14 1 -26 -9 -26 -6
0 -9 9 -6 20 3 11 1 20 -4 20 -10 0 -12 43 -2 53 9 10 22 -13 16 -30z m557 13
c0 -7 -9 -23 -20 -36 -28 -32 -26 -54 4 -48 16 3 27 0 30 -9 6 -14 -20 -30
-30 -20 -4 3 -17 -6 -30 -21 -13 -15 -24 -22 -24 -15 0 6 7 19 16 28 20 20 3
45 -26 38 -21 -6 -29 20 -10 32 6 3 10 -1 10 -9 0 -10 6 -13 15 -10 8 4 15 17
15 30 0 13 4 24 9 24 5 0 13 9 16 20 7 21 25 18 25 -4z m-451 -30 c1 -4 -6 -6
-14 -2 -9 3 -15 0 -15 -9 0 -8 -4 -15 -10 -15 -15 0 -12 19 8 45 15 20 18 21
24 7 4 -10 7 -21 7 -26z m221 3 c-8 -26 -7 -30 6 -25 13 5 15 -1 10 -36 -3
-22 -8 -43 -10 -45 -7 -8 -28 107 -22 123 11 29 25 14 16 -17z m-136 -25 c-6
-35 -8 -36 -15 -15 -6 14 -5 30 2 43 15 29 21 16 13 -28z m498 24 c-3 -13 -12
-28 -20 -34 -11 -8 -12 -13 -4 -18 31 -19 -8 -41 -52 -30 -32 8 -33 25 -5 43
16 9 23 10 29 1 4 -7 13 2 24 24 19 40 37 49 28 14z m-533 -74 c-9 -11 -8 -14
4 -14 8 0 18 6 21 13 3 6 3 -1 -1 -18 -6 -32 -19 -52 -28 -43 -9 9 -16 128 -8
141 4 7 10 -4 15 -27 5 -25 4 -43 -3 -52z m156 -40 c2 -21 5 -39 5 -39 1 0 4
-26 6 -57 2 -35 -1 -60 -8 -64 -7 -5 -9 -2 -5 8 3 9 3 19 0 22 -4 4 -8 25 -10
49 -3 23 -11 55 -18 71 -11 21 -12 33 -4 48 15 27 29 11 34 -38z m118 36 c-3
-11 0 -20 6 -20 5 0 8 -7 5 -15 -11 -27 -24 -16 -24 20 0 19 4 35 9 35 5 0 7
-9 4 -20z m50 -15 c-7 -21 -13 -19 -13 6 0 11 4 18 10 14 5 -3 7 -12 3 -20z
m-1 -57 c-4 -3 -16 -8 -27 -10 -11 -1 -23 -7 -27 -13 -4 -6 -8 -2 -8 8 0 9 6
17 14 17 7 0 19 7 26 15 11 13 15 13 21 3 5 -7 5 -16 1 -20z m265 -92 c-3 -8
-1 -16 5 -18 21 -7 -2 -46 -31 -50 -35 -5 -36 20 -1 57 27 28 35 32 27 11z
m94 -46 c4 0 6 -7 3 -15 -8 -21 20 -29 55 -17 26 9 29 8 24 -6 -5 -13 -3 -14
7 -5 22 20 40 4 33 -29 -4 -20 -1 -33 8 -39 23 -14 28 -11 35 26 6 36 21 46
30 20 3 -8 -1 -22 -10 -31 -14 -13 -14 -19 -4 -32 8 -10 9 -13 1 -9 -6 4 -18
5 -25 2 -17 -7 -20 -35 -4 -35 6 0 3 -5 -6 -11 -10 -5 -18 -21 -18 -34 0 -20
-5 -25 -25 -25 -14 0 -37 -11 -51 -25 -32 -32 -34 -31 -34 4 0 21 5 28 16 27
26 -2 28 22 2 26 -12 2 -28 14 -34 26 -6 13 -17 29 -23 35 -6 6 -11 21 -11 33
0 12 -7 27 -15 34 -8 7 -12 17 -9 22 4 6 -2 7 -17 3 -13 -4 -26 -7 -29 -7 -26
-1 -40 3 -40 11 0 4 11 6 25 3 18 -3 25 0 25 12 0 9 8 16 19 16 10 0 22 7 25
16 4 10 12 14 22 10 9 -3 20 -6 25 -6z m-160 -74 c-8 -10 -8 -16 3 -25 11 -9
18 -8 31 6 17 17 19 17 29 -1 24 -40 48 -66 57 -61 5 4 9 0 9 -7 0 -7 -10 -13
-22 -14 -13 0 -30 -4 -38 -8 -11 -4 -21 3 -33 24 -17 28 -40 42 -34 21 1 -5
-7 -17 -18 -25 -19 -15 -19 -15 7 -16 24 0 27 -3 23 -27 -2 -16 -7 -38 -11
-50 -5 -17 -1 -22 18 -25 12 -2 22 -9 21 -15 -2 -7 4 -10 12 -7 8 3 22 0 32
-8 20 -14 28 -38 14 -38 -5 0 -7 -9 -4 -20 3 -12 0 -20 -6 -20 -7 0 -9 5 -6
10 6 9 -8 14 -27 11 -5 0 -8 6 -8 14 0 8 -7 15 -15 15 -18 0 -95 154 -95 190
0 29 62 120 68 101 2 -6 -1 -18 -7 -25z m419 0 c0 -8 -4 -18 -10 -21 -5 -3
-10 -4 -10 -1 0 2 -3 11 -6 20 -4 11 -1 16 10 16 9 0 16 -6 16 -14z m100 -35
c0 -6 -4 -12 -8 -15 -5 -3 -9 1 -9 9 0 8 4 15 9 15 4 0 8 -4 8 -9z m395 -71
c-3 -5 -13 -10 -21 -10 -8 0 -12 5 -9 10 3 6 13 10 21 10 8 0 12 -4 9 -10z
m40 -10 c3 -5 1 -10 -4 -10 -6 0 -11 5 -11 10 0 6 2 10 4 10 3 0 8 -4 11 -10z
m-805 -11 c0 -7 -8 -18 -17 -25 -15 -11 -16 -15 -4 -23 7 -5 10 -14 7 -20 -11
-16 -26 -13 -20 4 4 10 0 15 -12 16 -42 3 -47 5 -51 17 -3 8 7 12 30 12 22 0
37 6 41 15 6 18 26 20 26 4z m810 -45 c0 -19 6 -18 30 6 11 11 25 20 32 20 9
0 9 -3 0 -12 -7 -7 -12 -20 -12 -30 0 -23 73 -46 93 -30 16 14 27 6 27 -19 0
-12 -10 -21 -27 -24 -16 -3 -45 -10 -65 -16 -64 -17 -97 13 -101 89 -2 39 1
48 11 40 6 -6 12 -17 12 -24z m-600 -9 c0 -5 -4 -4 -9 4 -7 11 -16 1 -37 -42
-30 -61 -50 -77 -32 -26 6 16 8 33 4 36 -9 9 -19 -4 -21 -30 -1 -14 -8 -21
-19 -21 -9 1 -16 -4 -16 -12 0 -21 -17 -25 -31 -7 -12 15 -12 16 4 10 13 -5
16 -3 10 6 -10 16 -13 38 -4 33 4 -3 14 4 21 15 8 10 24 19 37 19 13 0 24 8
28 19 10 34 65 30 65 -4z m850 11 c0 -3 -4 -8 -10 -11 -5 -3 -10 -1 -10 4 0 6
5 11 10 11 6 0 10 -2 10 -4z m-1026 -65 c3 -5 -6 -11 -19 -14 -29 -5 -45 9
-18 16 29 8 32 7 37 -2z m-179 -50 c-8 -8 -35 22 -35 38 0 12 5 10 20 -9 10
-14 17 -27 15 -29z m1250 -67 c13 -5 14 -8 3 -15 -22 -14 -48 -11 -42 6 7 17
14 18 39 9z m-76 -30 c2 -2 -25 -4 -60 -3 -47 1 -57 3 -39 9 22 7 89 3 99 -6z
m-124 -36 c-56 -15 -95 -18 -95 -8 0 6 8 10 18 11 25 1 65 9 70 14 2 2 11 1
20 -3 12 -4 9 -8 -13 -14z m-615 -118 c11 -7 -3 -9 -45 -9 -48 1 -54 3 -30 9
43 11 58 11 75 0z"/>
<path d="M2346 2167 c3 -10 9 -15 12 -12 3 3 0 11 -7 18 -10 9 -11 8 -5 -6z"/>
<path d="M775 2001 c-3 -5 -1 -12 5 -16 5 -3 10 1 10 9 0 18 -6 21 -15 7z"/>
<path d="M2220 1350 c-13 -8 -13 -11 -1 -19 7 -5 14 -18 15 -30 0 -12 4 -21 9
-21 4 0 14 0 22 0 8 0 15 5 15 10 0 6 -6 10 -14 10 -7 0 -17 13 -22 30 -7 23
-12 27 -24 20z"/>
<path d="M2289 1307 c7 -7 16 -13 22 -13 5 -1 14 -2 19 -3 6 0 9 -6 8 -13 -2
-6 5 -14 15 -16 15 -3 16 0 6 22 -7 14 -19 26 -28 27 -9 0 -24 2 -35 4 -14 3
-16 1 -7 -8z"/>
<path d="M2308 1263 c-10 -3 -21 -16 -24 -29 -7 -29 -6 -31 21 -36 13 -2 22 5
29 25 11 31 1 46 -26 40z"/>
<path d="M2350 1216 c0 -2 9 -6 20 -9 11 -3 20 -1 20 4 0 5 -9 9 -20 9 -11 0
-20 -2 -20 -4z"/>
<path d="M2355 1172 c-11 -4 -21 -15 -23 -25 -3 -15 0 -17 16 -8 11 6 22 17
26 26 3 8 4 15 3 14 -1 -1 -11 -4 -22 -7z"/>
<path d="M3091 1098 c-1 -9 4 -20 10 -23 6 -4 8 -13 5 -20 -3 -8 2 -12 12 -11
20 3 29 26 9 26 -8 0 -19 10 -25 23 -8 17 -11 18 -11 5z"/>
<path d="M2060 2661 c0 -5 5 -13 10 -16 6 -3 10 -2 10 4 0 5 -4 13 -10 16 -5
3 -10 2 -10 -4z"/>
<path d="M390 2277 c0 -11 -5 -15 -11 -11 -7 4 -7 -2 1 -17 17 -31 25 -39 16
-15 -4 11 -2 22 3 25 6 4 6 12 1 21 -8 13 -10 12 -10 -3z"/>
<path d="M515 2279 c-11 -17 -2 -18 19 -3 17 12 17 14 4 14 -9 0 -20 -5 -23
-11z"/>
<path d="M525 2251 c-3 -5 -1 -12 5 -16 5 -3 10 1 10 9 0 18 -6 21 -15 7z"/>
<path d="M44 2235 c-4 -8 -13 -15 -21 -15 -10 0 -13 -9 -11 -27 2 -21 9 -28
25 -29 12 -1 33 -8 46 -17 13 -8 34 -17 47 -19 16 -2 24 -11 27 -27 l3 -25
-23 22 c-48 45 -35 7 19 -54 30 -34 73 -99 94 -143 69 -143 136 -215 325 -353
224 -164 714 -395 930 -439 33 -7 66 -15 74 -19 25 -13 -141 -22 -189 -11 -63
15 -84 12 -30 -4 44 -13 42 -13 -67 -14 -70 -1 -114 -5 -119 -12 -6 -11 -121
-5 -163 8 -14 4 -14 3 1 -10 10 -8 15 -17 12 -20 -8 -8 53 -24 161 -43 100
-18 203 -15 345 11 100 18 211 19 295 4 88 -16 109 -16 113 1 1 9 -7 25 -18
37 -11 12 -20 25 -20 28 0 11 -41 45 -54 45 -19 0 -40 26 -26 35 5 3 14 4 19
0 21 -12 19 14 -2 39 -28 32 -39 33 -31 2 6 -26 -11 -45 -27 -29 -13 13 -20
53 -8 53 16 0 10 18 -13 40 -12 11 -17 20 -10 20 6 0 14 -5 17 -10 11 -18 25
-11 45 22 13 22 16 36 9 44 -5 7 -8 18 -7 25 7 29 -30 19 -42 -11 -9 -21 -28
-39 -57 -53 -23 -11 -43 -25 -43 -30 0 -5 7 -7 14 -4 10 4 13 1 10 -8 -3 -7
-13 -14 -22 -14 -9 0 -29 -3 -43 -6 -14 -4 -45 -1 -70 6 -24 7 -48 13 -54 14
-5 0 -16 4 -22 8 -7 5 -13 4 -13 -2 0 -5 4 -13 10 -16 5 -3 7 -20 4 -38 -4
-24 -3 -28 5 -17 9 12 11 10 11 -10 0 -18 3 -21 9 -11 5 8 10 9 12 2 8 -23
156 -13 188 12 10 9 17 7 27 -8 12 -16 11 -20 -9 -34 -12 -8 -26 -21 -30 -28
-15 -25 -97 -15 -169 21 -37 18 -65 36 -61 39 3 4 -1 7 -10 7 -21 0 -100 26
-152 50 -22 11 -74 33 -115 50 -136 57 -280 129 -280 140 0 6 -4 9 -9 5 -6 -3
-40 11 -78 32 -37 20 -78 42 -91 49 -13 6 -36 23 -52 37 -15 14 -31 23 -34 20
-3 -4 -6 -1 -6 5 0 7 -7 12 -15 12 -9 0 -12 6 -9 15 4 9 0 15 -10 15 -9 0 -16
4 -16 9 0 5 -15 16 -34 25 -19 9 -36 22 -39 29 -2 6 -11 12 -20 12 -9 0 -16 3
-14 7 1 4 -15 20 -35 35 -21 14 -38 30 -38 35 0 18 -4 24 -31 40 -16 10 -29
22 -29 27 0 6 -12 21 -26 34 -14 13 -26 32 -28 41 -1 10 -9 22 -17 27 -8 5
-10 9 -5 9 5 0 -1 11 -13 24 -13 14 -20 29 -16 35 3 6 -1 14 -9 17 -9 3 -16
12 -16 20 0 8 -7 14 -15 14 -27 0 -34 33 -15 68 10 18 22 33 27 32 4 0 9 8 11
18 2 14 -7 22 -38 32 -22 7 -40 17 -40 22 0 4 -8 8 -17 8 -10 0 -31 7 -47 15
-35 18 -35 18 -42 0z m1701 -1045 c3 -5 2 -10 -4 -10 -5 0 -13 5 -16 10 -3 6
-2 10 4 10 5 0 13 -4 16 -10z"/>
<path d="M495 2219 c-11 -16 -1 -19 13 -3 7 8 8 14 3 14 -5 0 -13 -5 -16 -11z"/>
<path d="M573 2153 c-7 -3 -13 -16 -13 -30 0 -16 5 -23 13 -20 6 2 19 -3 27
-11 13 -14 12 -15 -2 -9 -20 7 -68 -14 -68 -30 0 -13 24 -8 50 11 13 10 13 9
1 -6 -14 -19 -5 -23 18 -9 8 5 15 25 16 45 0 19 -1 33 -4 30 -3 -2 -10 4 -15
14 -6 11 -17 17 -23 15z"/>
<path d="M520 2110 c8 -16 8 -20 -4 -20 -8 0 -18 -4 -21 -10 -4 -7 2 -7 18 -1
14 6 28 7 31 4 3 -4 6 -1 6 5 0 7 -4 12 -10 12 -5 0 -10 7 -10 15 0 8 -5 15
-10 15 -7 0 -7 -6 0 -20z"/>
<path d="M276 2084 c-3 -9 -4 -19 -1 -22 3 -3 5 1 5 9 0 11 2 11 10 -1 5 -8
10 -10 10 -5 0 6 -4 16 -9 23 -6 11 -10 10 -15 -4z"/>
<path d="M1136 2063 c-6 -14 -5 -15 5 -6 7 7 10 15 7 18 -3 3 -9 -2 -12 -12z"/>
<path d="M286 2035 c-4 -10 -2 -14 5 -9 8 4 9 -1 4 -15 -4 -13 -2 -21 5 -21
14 0 40 -25 40 -39 0 -6 7 -8 15 -5 21 8 19 32 -2 30 -10 0 -26 15 -39 37 -16
30 -23 35 -28 22z"/>
<path d="M480 2040 c-9 -6 -10 -10 -3 -10 6 0 15 5 18 10 8 12 4 12 -15 0z"/>
<path d="M602 2042 c-7 -5 -10 -16 -6 -25 4 -11 1 -17 -7 -17 -7 0 -10 -2 -7
-5 10 -10 39 8 34 21 -3 8 0 11 10 7 10 -4 12 0 8 11 -7 18 -13 19 -32 8z"/>
<path d="M345 2030 c-3 -6 1 -7 9 -4 18 7 21 14 7 14 -6 0 -13 -4 -16 -10z"/>
<path d="M540 2030 c-8 -5 -12 -11 -9 -14 3 -3 14 1 25 9 21 16 8 20 -16 5z"/>
<path d="M483 2023 c-13 -3 -23 -12 -23 -21 0 -13 2 -14 9 -4 4 8 12 14 17 14
5 0 16 4 24 9 16 9 10 9 -27 2z"/>
<path d="M345 2000 c-3 -5 -1 -10 4 -10 6 0 11 5 11 10 0 6 -2 10 -4 10 -3 0
-8 -4 -11 -10z"/>
<path d="M388 1995 c-7 -12 17 -37 26 -28 10 10 7 25 -3 19 -5 -4 -11 -1 -13
6 -3 7 -7 8 -10 3z"/>
<path d="M520 1990 c0 -5 5 -10 10 -10 6 0 10 5 10 10 0 6 -4 10 -10 10 -5 0
-10 -4 -10 -10z"/>
<path d="M515 1960 c-8 -13 5 -13 25 0 13 8 13 10 -2 10 -9 0 -20 -4 -23 -10z"/>
<path d="M555 1950 c-3 -5 -2 -10 4 -10 5 0 13 5 16 10 3 6 2 10 -4 10 -5 0
-13 -4 -16 -10z"/>
<path d="M393 1933 c-10 -16 -13 -16 -22 -3 -10 13 -11 13 -11 0 0 -21 32 -48
50 -42 13 5 13 3 0 -13 -13 -16 -13 -18 0 -13 17 5 27 58 11 58 -5 0 -11 7
-13 15 -2 13 -5 13 -15 -2z m21 -21 c3 -5 -1 -9 -9 -9 -8 0 -15 4 -15 9 0 4 4
8 9 8 6 0 12 -4 15 -8z"/>
<path d="M447 1943 c-4 -3 -7 -18 -6 -32 1 -26 1 -25 10 3 9 31 7 41 -4 29z"/>
<path d="M575 1927 c-27 -18 -57 -29 -51 -18 9 14 -24 22 -45 11 -26 -14 -24
-18 6 -12 21 4 25 0 25 -19 0 -13 4 -19 8 -14 10 14 39 17 47 5 4 -7 13 -7 28
0 22 10 22 10 0 -6 -13 -9 -23 -22 -23 -28 0 -6 5 -4 10 4 8 12 10 8 11 -15 1
-16 1 -33 1 -36 -1 -3 6 -6 14 -6 10 0 11 4 4 11 -12 12 -13 49 -2 60 6 7 12
56 6 56 -2 0 -9 -6 -17 -14 -8 -8 -19 -11 -27 -6 -9 6 -5 12 16 24 16 8 24 15
19 16 -6 0 -19 -6 -30 -13z"/>
<path d="M457 1883 c-4 -3 -7 -11 -7 -17 0 -6 5 -5 12 2 6 6 9 14 7 17 -3 3
-9 2 -12 -2z"/>
<path d="M485 1880 c-3 -5 -1 -10 4 -10 6 0 11 5 11 10 0 6 -2 10 -4 10 -3 0
-8 -4 -11 -10z"/>
<path d="M817 1884 c-4 -4 -17 -8 -29 -9 -13 -1 -27 -3 -31 -4 -4 0 -3 -10 3
-21 8 -15 8 -20 -1 -20 -22 0 0 -13 26 -16 14 -1 23 2 20 7 -6 8 11 13 43 12
6 -1 12 3 12 7 0 5 8 11 18 13 14 4 14 6 -5 12 -13 4 -23 11 -23 16 0 10 -24
12 -33 3z m33 -25 c0 -5 -3 -8 -7 -8 -5 1 -10 0 -13 -1 -23 -9 -60 -9 -60 1 0
6 7 9 15 5 8 -3 15 -1 15 5 0 6 7 9 15 5 8 -3 15 -1 15 5 0 6 5 7 10 4 6 -3
10 -10 10 -16z"/>
<path d="M946 1861 c-16 -18 -16 -18 9 -18 18 0 25 5 25 18 0 11 -4 19 -8 19
-5 0 -17 -8 -26 -19z"/>
<path d="M471 1842 c-1 -25 19 -26 27 -2 3 7 0 10 -6 6 -6 -3 -13 0 -15 6 -3
7 -6 3 -6 -10z"/>
<path d="M633 1836 c-10 -11 -9 -15 4 -20 12 -5 13 -9 3 -21 -11 -13 -10 -14
4 -9 11 4 14 13 9 32 -4 17 -2 23 6 18 6 -4 11 -2 11 3 0 15 -23 13 -37 -3z"/>
<path d="M571 1814 c0 -11 3 -14 6 -6 3 7 2 16 -1 19 -3 4 -6 -2 -5 -13z"/>
<path d="M970 1811 c0 -12 5 -21 10 -21 6 0 10 6 10 14 0 8 -4 18 -10 21 -5 3
-10 -3 -10 -14z"/>
<path d="M551 1804 c0 -11 3 -14 6 -6 3 7 2 16 -1 19 -3 4 -6 -2 -5 -13z"/>
<path d="M941 1794 c0 -11 3 -14 6 -6 3 7 2 16 -1 19 -3 4 -6 -2 -5 -13z"/>
<path d="M1026 1785 c-4 -14 -11 -24 -17 -22 -18 3 -22 -20 -4 -26 8 -4 15 -2
15 3 0 6 6 10 14 10 8 0 14 10 14 25 0 34 -14 41 -22 10z"/>
<path d="M1000 1790 c0 -5 5 -10 11 -10 5 0 7 5 4 10 -3 6 -8 10 -11 10 -2 0
-4 -4 -4 -10z"/>
<path d="M640 1770 c-8 -5 -11 -12 -8 -16 10 -9 38 3 38 16 0 12 -10 13 -30 0z"/>
<path d="M935 1759 c-4 -6 -13 -8 -20 -5 -7 2 -16 -2 -19 -10 -9 -24 -8 -26
14 -19 11 4 20 2 20 -4 0 -6 -10 -11 -22 -11 -20 0 -21 -1 -3 -20 10 -11 25
-20 34 -20 11 1 8 5 -8 14 l-23 13 32 7 c26 5 30 9 21 20 -6 7 -9 21 -5 30 7
18 -11 22 -21 5z"/>
<path d="M610 1740 c0 -5 4 -10 9 -10 5 0 14 -12 19 -27 l11 -28 -2 26 c-1 25
-37 62 -37 39z"/>
<path d="M664 1706 c1 -20 -2 -37 -8 -39 -6 -3 -9 -7 -6 -10 3 -3 16 3 28 14
l24 19 -21 26 -20 26 3 -36z m26 -10 c0 -3 -4 -8 -10 -11 -5 -3 -10 -1 -10 4
0 6 5 11 10 11 6 0 10 -2 10 -4z"/>
<path d="M710 1715 c0 -14 5 -25 10 -25 6 0 10 5 10 11 0 5 5 7 11 3 8 -5 8
-9 -1 -14 -8 -5 -9 -10 -2 -14 24 -15 22 18 -2 40 l-26 25 0 -26z"/>
<path d="M1179 1740 c0 -3 -2 -13 -4 -22 -2 -10 0 -20 5 -23 12 -8 19 20 9 36
-5 8 -9 12 -10 9z"/>
<path d="M1078 1705 c2 -14 9 -28 15 -32 7 -4 8 0 4 11 -4 10 -7 24 -7 32 0 8
-4 14 -9 14 -4 0 -6 -11 -3 -25z"/>
<path d="M554 1704 c-18 -14 -18 -15 4 -4 12 6 22 13 22 15 0 8 -5 6 -26 -11z"/>
<path d="M1004 1696 c3 -26 23 -56 37 -56 5 0 6 7 3 15 -4 8 -1 15 5 15 6 0
11 -4 11 -10 0 -5 8 -10 18 -10 16 1 16 1 0 11 -10 5 -18 17 -18 24 0 8 -4 15
-10 15 -5 0 -10 -4 -10 -10 0 -5 -4 -10 -10 -10 -5 0 -9 3 -9 8 3 17 -2 32
-10 32 -5 0 -8 -11 -7 -24z"/>
<path d="M816 1701 c-9 -13 28 -33 48 -25 14 6 21 -5 17 -28 0 -5 6 -8 14 -8
8 0 15 -4 15 -10 0 -5 7 -10 15 -10 8 0 15 -6 15 -12 1 -7 6 -3 13 10 7 12 16
20 19 16 4 -3 2 -14 -5 -25 -9 -15 -7 -23 13 -44 13 -14 28 -25 34 -25 6 0 5
5 -2 12 -14 14 -16 32 -3 23 5 -3 12 -1 16 5 4 6 11 8 16 5 16 -11 9 7 -8 21
-24 18 -38 18 -24 0 9 -11 8 -15 -5 -20 -23 -9 -23 -9 -21 26 2 28 -2 33 -20
34 -13 1 -20 -3 -17 -10 3 -6 0 -4 -8 5 -7 9 -23 21 -35 28 -13 6 -23 19 -23
29 -1 16 -1 16 -14 0 -11 -16 -14 -16 -28 -2 -10 10 -18 12 -22 5z"/>
<path d="M1149 1673 c0 -10 -3 -13 -6 -6 -3 9 -13 5 -31 -12 -14 -13 -29 -22
-34 -19 -4 3 -8 -2 -8 -10 0 -9 5 -16 10 -16 6 0 10 5 10 11 0 6 7 8 16 5 12
-5 15 -2 10 9 -4 11 -1 15 10 13 9 -2 23 7 31 20 10 14 11 22 4 22 -6 0 -11
-8 -12 -17z"/>
<path d="M1230 1679 c0 -5 5 -7 10 -4 6 3 10 8 10 11 0 2 -4 4 -10 4 -5 0 -10
-5 -10 -11z"/>
<path d="M710 1670 c0 -5 5 -10 10 -10 6 0 10 5 10 10 0 6 -4 10 -10 10 -5 0
-10 -4 -10 -10z"/>
<path d="M770 1668 c0 -9 5 -20 10 -23 13 -8 13 5 0 25 -8 13 -10 13 -10 -2z"/>
<path d="M1200 1655 c7 -9 15 -13 17 -11 7 7 -7 26 -19 26 -6 0 -6 -6 2 -15z"/>
<path d="M660 1640 c-13 -8 -13 -10 2 -10 9 0 20 5 23 10 8 13 -5 13 -25 0z"/>
<path d="M1160 1636 c0 -9 7 -16 16 -16 17 0 14 22 -4 28 -7 2 -12 -3 -12 -12z"/>
<path d="M700 1626 c0 -8 4 -17 9 -20 5 -4 7 3 4 14 -6 23 -13 26 -13 6z"/>
<path d="M1240 1624 c0 -8 5 -12 10 -9 6 3 10 10 10 16 0 5 -4 9 -10 9 -5 0
-10 -7 -10 -16z"/>
<path d="M1136 1621 c-4 -5 -20 -12 -36 -16 -37 -8 -49 -24 -15 -20 14 1 25
-2 25 -7 0 -6 8 -26 17 -45 13 -28 14 -39 5 -54 -7 -10 -8 -20 -2 -24 5 -3 11
-1 15 5 8 13 45 13 45 -1 0 -5 4 -7 10 -4 5 3 18 1 27 -4 17 -10 17 -10 -1
-11 -18 0 -18 -1 -2 -19 23 -26 53 -32 61 -14 4 11 0 14 -14 10 -14 -3 -18 -1
-14 9 7 18 13 18 41 -2 21 -14 22 -14 18 8 -2 17 -9 22 -25 21 -12 -2 -21 3
-21 11 0 7 -11 18 -25 24 -33 15 -33 15 -38 -5 -3 -13 -5 -11 -6 6 -1 21 2 23
32 18 17 -3 27 -3 20 -1 -7 3 -10 11 -7 19 3 7 0 16 -7 21 -9 5 -10 2 -6 -9 4
-11 2 -14 -9 -10 -7 3 -14 11 -14 18 0 8 -4 16 -9 19 -4 3 -7 -6 -5 -19 1 -14
-2 -23 -7 -19 -17 10 -31 -7 -18 -22 7 -8 7 -14 1 -14 -8 0 -23 22 -26 40 -1
3 -5 11 -9 18 -8 12 -7 13 13 16 6 0 10 4 10 9 0 4 0 10 0 13 0 4 -6 1 -13 -5
-8 -6 -16 -8 -20 -5 -8 9 4 35 13 29 5 -3 11 -1 14 4 4 5 2 12 -3 15 -5 4 -12
2 -15 -3z m115 -158 c13 -15 12 -15 -8 -4 -24 12 -29 21 -14 21 5 0 15 -7 22
-17z"/>
<path d="M730 1610 c0 -5 7 -7 15 -4 8 4 15 8 15 10 0 2 -7 4 -15 4 -8 0 -15
-4 -15 -10z"/>
<path d="M725 1580 c-3 -6 1 -7 9 -4 18 7 21 14 7 14 -6 0 -13 -4 -16 -10z"/>
<path d="M875 1579 c-4 -6 -5 -12 -2 -15 2 -3 7 2 10 11 7 17 1 20 -8 4z"/>
<path d="M1220 1580 c0 -5 5 -10 11 -10 5 0 7 5 4 10 -3 6 -8 10 -11 10 -2 0
-4 -4 -4 -10z"/>
<path d="M844 1572 c4 -7 2 -12 -3 -12 -6 0 -11 -4 -11 -8 0 -5 7 -9 15 -9 18
0 20 23 3 33 -7 4 -8 3 -4 -4z"/>
<path d="M1030 1566 c0 -9 5 -16 10 -16 6 0 9 -4 8 -9 -2 -5 2 -10 7 -11 6 -1
14 -8 18 -16 5 -8 13 -11 19 -8 6 4 17 -1 25 -11 11 -16 13 -16 13 -3 0 9 -7
18 -15 21 -8 4 -12 15 -10 27 2 11 1 21 -3 21 -4 1 -17 3 -28 4 -12 1 -26 5
-33 9 -6 4 -11 1 -11 -8z m58 -18 c-2 -6 -13 -12 -24 -14 -19 -3 -19 -3 0 12
24 17 29 18 24 2z"/>
<path d="M1362 1560 c-13 -11 -18 -21 -12 -25 5 -3 10 -1 10 4 0 6 6 11 13 11
8 0 14 7 14 15 0 8 -1 15 -1 15 -1 -1 -11 -9 -24 -20z"/>
<path d="M1266 1561 c-15 -6 -16 -10 -7 -16 8 -4 16 -2 21 5 4 7 13 9 19 6 6
-4 11 -2 11 3 0 12 -16 13 -44 2z"/>
<path d="M1380 1525 c0 -8 4 -15 10 -15 5 0 7 7 4 15 -4 8 -8 15 -10 15 -2 0
-4 -7 -4 -15z"/>
<path d="M1525 1529 c-11 -17 1 -21 15 -4 8 9 8 15 2 15 -6 0 -14 -5 -17 -11z"/>
<path d="M915 1520 c-3 -6 1 -7 9 -4 18 7 21 14 7 14 -6 0 -13 -4 -16 -10z"/>
<path d="M972 1522 c-19 -12 -3 -42 22 -42 20 1 20 1 2 15 -10 7 -15 18 -11
24 7 13 4 14 -13 3z"/>
<path d="M1425 1511 c-3 -5 -1 -12 5 -16 5 -3 10 1 10 9 0 18 -6 21 -15 7z"/>
<path d="M1490 1506 c0 -8 4 -16 9 -18 6 -1 11 -15 13 -30 2 -15 8 -31 12 -35
5 -4 6 5 2 21 -6 23 -4 27 8 23 11 -5 16 0 16 13 0 11 -5 20 -11 20 -5 0 -7
-4 -4 -10 3 -5 1 -10 -5 -10 -7 0 -14 9 -17 20 -6 23 -23 27 -23 6z"/>
<path d="M1020 1490 c0 -5 5 -10 11 -10 5 0 7 5 4 10 -3 6 -8 10 -11 10 -2 0
-4 -4 -4 -10z"/>
<path d="M1280 1491 c0 -6 4 -13 10 -16 6 -3 7 1 4 9 -7 18 -14 21 -14 7z"/>
<path d="M1360 1470 c0 -5 5 -10 11 -10 5 0 7 5 4 10 -3 6 -8 10 -11 10 -2 0
-4 -4 -4 -10z"/>
<path d="M1430 1470 c0 -5 5 -10 11 -10 5 0 7 5 4 10 -3 6 -8 10 -11 10 -2 0
-4 -4 -4 -10z"/>
<path d="M1790 1475 c-1 -5 -3 -27 -4 -48 -2 -28 0 -34 6 -23 12 21 29 11 21
-12 -4 -10 -2 -14 3 -9 14 13 11 68 -3 63 -6 -3 -14 5 -16 17 -2 12 -5 18 -7
12z"/>
<path d="M1330 1460 c0 -5 5 -10 11 -10 5 0 7 5 4 10 -3 6 -8 10 -11 10 -2 0
-4 -4 -4 -10z"/>
<path d="M1400 1463 c0 -20 22 -73 30 -73 5 0 4 15 -2 33 -12 34 -28 58 -28
40z"/>
<path d="M1150 1450 c0 -5 5 -10 11 -10 5 0 7 5 4 10 -3 6 -8 10 -11 10 -2 0
-4 -4 -4 -10z"/>
<path d="M1373 1430 c1 -10 7 -22 13 -24 7 -3 10 3 7 15 -7 27 -22 34 -20 9z"/>
<path d="M1176 1431 c-12 -5 -15 -10 -9 -14 6 -4 16 0 23 8 14 17 13 17 -14 6z"/>
<path d="M1340 1427 c0 -8 6 -20 14 -26 12 -10 13 -8 9 9 -7 25 -23 37 -23 17z"/>
<path d="M1445 1430 c3 -5 8 -10 11 -10 2 0 4 5 4 10 0 6 -5 10 -11 10 -5 0
-7 -4 -4 -10z"/>
<path d="M1890 1429 c0 -15 18 -19 23 -6 3 8 -1 14 -9 14 -8 0 -14 -4 -14 -8z"/>
<path d="M1485 1404 c2 -16 4 -31 5 -34 2 -3 2 -8 1 -12 0 -5 6 -8 13 -8 12 0
13 6 4 33 -15 44 -28 56 -23 21z"/>
<path d="M1845 1420 c-3 -5 1 -10 9 -10 8 0 18 5 21 10 3 6 -1 10 -9 10 -8 0
-18 -4 -21 -10z"/>
<path d="M1455 1400 c3 -5 8 -10 11 -10 2 0 4 5 4 10 0 6 -5 10 -11 10 -5 0
-7 -4 -4 -10z"/>
<path d="M1305 1390 c-3 -5 3 -10 15 -10 12 0 18 5 15 10 -3 6 -10 10 -15 10
-5 0 -12 -4 -15 -10z"/>
<path d="M1525 1390 c3 -5 8 -10 11 -10 2 0 4 5 4 10 0 6 -5 10 -11 10 -5 0
-7 -4 -4 -10z"/>
<path d="M1390 1380 c0 -5 5 -10 10 -10 6 0 10 5 10 10 0 6 -4 10 -10 10 -5 0
-10 -4 -10 -10z"/>
<path d="M1572 1357 c1 -20 6 -37 10 -37 4 0 5 15 1 33 -8 46 -14 48 -11 4z"/>
<path d="M1605 1360 c3 -5 8 -10 11 -10 2 0 4 5 4 10 0 6 -5 10 -11 10 -5 0
-7 -4 -4 -10z"/>
<path d="M1685 1360 c-3 -5 -1 -10 4 -10 6 0 11 5 11 10 0 6 -2 10 -4 10 -3 0
-8 -4 -11 -10z"/>
<path d="M1645 1340 c-3 -5 -12 -7 -20 -3 -11 4 -13 1 -9 -11 3 -9 14 -16 24
-16 10 0 25 -3 33 -6 8 -3 17 1 20 9 4 11 -1 14 -18 13 -16 -2 -22 1 -18 10 6
16 -3 19 -12 4z"/>
<path d="M1720 1340 c0 -5 7 -7 15 -4 8 4 15 8 15 10 0 2 -7 4 -15 4 -8 0 -15
-4 -15 -10z"/>
<path d="M1428 1333 c7 -3 16 -2 19 1 4 3 -2 6 -13 5 -11 0 -14 -3 -6 -6z"/>
<path d="M1345 1320 c-4 -6 -10 -8 -15 -5 -5 3 -8 -3 -7 -13 1 -21 47 -48 47
-29 1 7 9 2 19 -10 26 -31 35 -29 15 3 -9 14 -23 23 -30 20 -7 -3 -16 0 -20 6
-4 7 -3 8 4 4 8 -5 12 0 12 13 0 22 -14 28 -25 11z"/>
<path d="M1514 1321 c18 -7 18 -8 -5 -14 -34 -10 -46 -8 -29 3 11 7 6 10 -22
10 -29 0 -38 -5 -44 -22 -4 -13 -2 -24 5 -26 6 -2 11 -10 11 -18 0 -9 5 -12
10 -9 6 3 10 1 10 -4 0 -6 -8 -11 -17 -11 -15 0 -16 -2 -3 -9 8 -6 18 -7 22
-5 4 3 8 -3 8 -13 0 -15 2 -16 10 -3 13 20 13 33 0 25 -5 -3 -10 2 -10 12 0
10 -9 24 -20 31 -11 7 -20 17 -20 23 0 5 5 7 10 4 6 -3 10 -1 10 4 0 6 4 11
10 11 5 0 7 -7 4 -15 -5 -13 1 -14 32 -9 22 3 44 10 50 15 6 5 14 6 17 2 4 -3
7 -2 7 4 0 6 -10 13 -22 17 -32 8 -47 6 -24 -3z"/>
<path d="M1563 1296 c-50 -18 -50 -26 0 -26 26 0 48 1 50 2 1 1 12 -4 25 -11
19 -10 22 -9 22 9 0 18 -4 20 -42 14 -31 -4 -39 -3 -28 5 22 16 8 20 -27 7z"/>
<path d="M1893 1190 c47 -61 77 -77 77 -39 0 11 -4 18 -9 15 -5 -3 -12 5 -15
19 -5 19 -12 24 -35 22 -24 -2 -27 -5 -18 -17z"/>
<path d="M2584 1166 c-3 -9 -3 -23 0 -32 4 -11 1 -14 -12 -10 -9 3 -23 1 -31
-3 -12 -8 -12 -12 -2 -25 7 -8 18 -13 25 -10 15 6 17 -57 2 -67 -4 -4 6 -22
24 -40 17 -19 30 -27 28 -20 -4 17 70 39 81 25 3 -5 13 -11 21 -12 45 -11 49
-10 43 4 -3 9 -13 14 -24 11 -10 -3 -19 -1 -21 5 -2 5 -13 10 -26 11 -14 1
-22 8 -22 19 0 10 -5 18 -11 18 -14 0 -39 26 -39 40 0 6 -4 8 -10 5 -5 -3 -10
3 -10 14 0 11 6 24 14 28 8 4 16 17 18 28 4 25 -39 35 -48 11z"/>
<path d="M2754 1155 c-5 -11 -10 -13 -19 -5 -9 8 -14 5 -18 -9 -4 -16 2 -20
42 -23 53 -5 71 4 55 30 -15 23 -52 28 -60 7z"/>
<path d="M2845 1150 c4 -6 11 -8 16 -5 14 9 11 15 -7 15 -8 0 -12 -5 -9 -10z"/>
<path d="M2650 1105 c-9 -11 -10 -19 -2 -27 14 -14 32 -1 32 23 0 23 -13 25
-30 4z"/>
<path d="M2410 956 c5 -13 7 -26 4 -29 -10 -10 48 -46 63 -40 10 4 14 2 10 -4
-3 -5 6 -16 21 -24 15 -8 29 -17 32 -20 16 -20 54 -29 88 -22 20 4 39 7 42 8
3 0 13 5 24 11 16 10 11 14 -40 29 -65 20 -87 33 -78 46 3 5 -2 9 -11 9 -10 0
-13 5 -9 13 6 9 4 9 -8 -1 -19 -15 -71 -6 -61 11 4 6 1 7 -7 2 -8 -5 -18 -1
-27 10 -7 11 -13 13 -13 7 0 -7 -4 -12 -10 -12 -5 0 -10 7 -10 15 0 8 -4 15
-10 15 -6 0 -6 -9 0 -24z"/>
<path d="M2642 953 c-10 -10 -11 -18 -3 -27 6 -7 8 -16 4 -19 -3 -4 3 -7 15
-7 25 0 29 25 9 51 -11 14 -14 14 -25 2z"/>
<path d="M2304 906 c-2 -27 34 -50 96 -61 19 -3 52 -18 73 -32 20 -14 41 -22
45 -18 4 4 1 10 -6 12 -6 3 -10 9 -7 13 10 17 -64 62 -110 68 -24 2 -43 8 -40
12 3 5 -36 30 -48 30 -1 0 -3 -11 -3 -24z"/>
<path d="M3363 883 c3 -5 -7 -9 -22 -10 -44 -3 -149 -54 -155 -76 -3 -12 -12
-18 -28 -16 -27 3 -146 -30 -154 -42 -7 -12 20 -11 91 2 45 8 60 8 66 -2 5 -8
34 -14 81 -15 46 -1 72 -6 71 -13 -3 -13 36 -35 45 -26 4 4 -2 14 -13 22 -20
16 -20 16 0 8 11 -4 37 -11 59 -17 21 -5 50 -18 64 -28 13 -11 35 -20 48 -20
13 0 24 -4 24 -10 0 -5 7 -10 15 -10 9 0 29 -7 45 -15 59 -31 116 11 104 74
-4 18 -14 35 -23 38 -46 16 -161 74 -161 82 0 5 -8 12 -17 15 -10 3 -40 19
-68 36 -48 28 -81 38 -72 23z m23 -18 c-3 -8 2 -19 12 -24 16 -10 16 -10 0
-11 -9 0 -18 6 -21 13 -4 13 2 37 10 37 3 0 3 -7 -1 -15z m139 -97 c46 -35 54
-44 37 -46 -25 -4 -133 49 -113 56 10 3 7 9 -10 18 l-24 13 26 1 c16 0 50 -17
84 -42z m135 -58 c0 -5 -5 -10 -11 -10 -5 0 -7 5 -4 10 3 6 8 10 11 10 2 0 4
-4 4 -10z m-26 -25 c3 -8 1 -15 -4 -15 -6 0 -10 7 -10 15 0 8 2 15 4 15 2 0 6
-7 10 -15z"/>
<path d="M2794 769 c-2 -4 2 -9 10 -12 19 -8 47 -2 44 8 -4 10 -48 14 -54 4z"/>
</g>
</svg>
