<?xml version="1.0" encoding="UTF-8" standalone="no"?>
<svg
   xmlns:dc="http://purl.org/dc/elements/1.1/"
   xmlns:cc="http://creativecommons.org/ns#"
   xmlns:rdf="http://www.w3.org/1999/02/22-rdf-syntax-ns#"
   xmlns:svg="http://www.w3.org/2000/svg"
   xmlns="http://www.w3.org/2000/svg"
   xmlns:sodipodi="http://sodipodi.sourceforge.net/DTD/sodipodi-0.dtd"
   xmlns:inkscape="http://www.inkscape.org/namespaces/inkscape"
   viewBox="0 0 453.54331 324"
   version="1.1"
   id="svg1075"
   sodipodi:docname="pca_liver_top500.svg"
   width="120mm"
   height="85.724998mm"
   inkscape:version="1.0.2 (e86c8708, 2021-01-15)">
  <metadata
     id="metadata1079">
    <rdf:RDF>
      <cc:Work
         rdf:about="">
        <dc:format>image/svg+xml</dc:format>
        <dc:type
           rdf:resource="http://purl.org/dc/dcmitype/StillImage" />
        <dc:title />
      </cc:Work>
    </rdf:RDF>
  </metadata>
  <sodipodi:namedview
     pagecolor="#ffffff"
     bordercolor="#666666"
     borderopacity="1"
     objecttolerance="10"
     gridtolerance="10"
     guidetolerance="10"
     inkscape:pageopacity="0"
     inkscape:pageshadow="2"
     inkscape:window-width="1411"
     inkscape:window-height="882"
     id="namedview1077"
     showgrid="false"
     units="mm"
     inkscape:zoom="1"
     inkscape:cx="335.8292"
     inkscape:cy="162"
     inkscape:window-x="146"
     inkscape:window-y="25"
     inkscape:window-maximized="0"
     inkscape:current-layer="layer1"
     inkscape:document-rotation="0" />
  <defs
     id="defs835">
    <style
       type="text/css"
       id="style833"><![CDATA[
    line, polyline, polygon, path, rect, circle {
      fill: none;
      stroke: #000000;
      stroke-linecap: round;
      stroke-linejoin: round;
      stroke-miterlimit: 10.00;
    }
  ]]></style>
  </defs>
  <defs
     id="defs844">
    <clipPath
       id="cpMzUuNzJ8MzE4LjUyfDI5My4xMnwyMi43OA==">
      <rect
         x="35.720001"
         y="22.780001"
         width="282.79999"
         height="270.34"
         id="rect841" />
    </clipPath>
  </defs>
  <defs
     id="defs987">
    <clipPath
       id="cpMC4wMHwzMjQuMDB8MzI0LjAwfDAuMDA=">
      <rect
         x="0"
         y="0"
         width="324"
         height="324"
         id="rect984" />
    </clipPath>
  </defs>
  <g
     inkscape:groupmode="layer"
     id="layer1"
     inkscape:label="main">
    <rect
       x="35.720001"
       y="22.780001"
       width="282.79999"
       height="270.34"
       style="fill:#ffffff;stroke:none;stroke-width:1.07"
       clip-path="url(#cpMzUuNzJ8MzE4LjUyfDI5My4xMnwyMi43OA==)"
       id="rect846"
       transform="translate(64)" />
    <polyline
       points="35.72,260.46 318.52,260.46 "
       style="stroke:#ebebeb;stroke-width:0.53;stroke-linecap:butt"
       clip-path="url(#cpMzUuNzJ8MzE4LjUyfDI5My4xMnwyMi43OA==)"
       id="polyline848"
       transform="translate(64)" />
    <polyline
       points="35.72,166.80 318.52,166.80 "
       style="stroke:#ebebeb;stroke-width:0.53;stroke-linecap:butt"
       clip-path="url(#cpMzUuNzJ8MzE4LjUyfDI5My4xMnwyMi43OA==)"
       id="polyline850"
       transform="translate(64)" />
    <polyline
       points="35.72,73.14 318.52,73.14 "
       style="stroke:#ebebeb;stroke-width:0.53;stroke-linecap:butt"
       clip-path="url(#cpMzUuNzJ8MzE4LjUyfDI5My4xMnwyMi43OA==)"
       id="polyline852"
       transform="translate(64)" />
    <polyline
       points="55.51,293.12 55.51,22.78 "
       style="stroke:#ebebeb;stroke-width:0.53;stroke-linecap:butt"
       clip-path="url(#cpMzUuNzJ8MzE4LjUyfDI5My4xMnwyMi43OA==)"
       id="polyline854"
       transform="translate(64)" />
    <polyline
       points="140.10,293.12 140.10,22.78 "
       style="stroke:#ebebeb;stroke-width:0.53;stroke-linecap:butt"
       clip-path="url(#cpMzUuNzJ8MzE4LjUyfDI5My4xMnwyMi43OA==)"
       id="polyline856"
       transform="translate(64)" />
    <polyline
       points="224.70,293.12 224.70,22.78 "
       style="stroke:#ebebeb;stroke-width:0.53;stroke-linecap:butt"
       clip-path="url(#cpMzUuNzJ8MzE4LjUyfDI5My4xMnwyMi43OA==)"
       id="polyline858"
       transform="translate(64)" />
    <polyline
       points="309.29,293.12 309.29,22.78 "
       style="stroke:#ebebeb;stroke-width:0.53;stroke-linecap:butt"
       clip-path="url(#cpMzUuNzJ8MzE4LjUyfDI5My4xMnwyMi43OA==)"
       id="polyline860"
       transform="translate(64)" />
    <polyline
       points="35.72,213.63 318.52,213.63 "
       style="stroke:#ebebeb;stroke-width:1.07;stroke-linecap:butt"
       clip-path="url(#cpMzUuNzJ8MzE4LjUyfDI5My4xMnwyMi43OA==)"
       id="polyline862"
       transform="translate(64)" />
    <polyline
       points="35.72,119.97 318.52,119.97 "
       style="stroke:#ebebeb;stroke-width:1.07;stroke-linecap:butt"
       clip-path="url(#cpMzUuNzJ8MzE4LjUyfDI5My4xMnwyMi43OA==)"
       id="polyline864"
       transform="translate(64)" />
    <polyline
       points="35.72,26.31 318.52,26.31 "
       style="stroke:#ebebeb;stroke-width:1.07;stroke-linecap:butt"
       clip-path="url(#cpMzUuNzJ8MzE4LjUyfDI5My4xMnwyMi43OA==)"
       id="polyline866"
       transform="translate(64)" />
    <polyline
       points="97.80,293.12 97.80,22.78 "
       style="stroke:#ebebeb;stroke-width:1.07;stroke-linecap:butt"
       clip-path="url(#cpMzUuNzJ8MzE4LjUyfDI5My4xMnwyMi43OA==)"
       id="polyline868"
       transform="translate(64)" />
    <polyline
       points="182.40,293.12 182.40,22.78 "
       style="stroke:#ebebeb;stroke-width:1.07;stroke-linecap:butt"
       clip-path="url(#cpMzUuNzJ8MzE4LjUyfDI5My4xMnwyMi43OA==)"
       id="polyline870"
       transform="translate(64)" />
    <polyline
       points="266.99,293.12 266.99,22.78 "
       style="stroke:#ebebeb;stroke-width:1.07;stroke-linecap:butt"
       clip-path="url(#cpMzUuNzJ8MzE4LjUyfDI5My4xMnwyMi43OA==)"
       id="polyline872"
       transform="translate(64)" />
    <polygon
       points="128.61,30.37 128.27,30.3 128.01,30.29 106.14,30.29 106.4,30.3 106.05,30.29 105.71,30.33 105.37,30.43 105.06,30.58 104.77,30.78 104.52,31.02 104.31,31.29 104.15,31.6 104.04,31.93 103.98,32.28 103.98,32.45 103.98,41.2 103.98,41.03 103.98,41.38 104.04,41.72 104.15,42.05 104.31,42.36 104.52,42.63 104.77,42.87 105.06,43.07 105.37,43.22 105.71,43.32 106.05,43.36 106.14,43.36 128.01,43.36 127.92,43.36 128.27,43.35 128.61,43.28 128.93,43.15 129.23,42.98 129.5,42.76 129.73,42.5 129.92,42.21 130.06,41.89 130.14,41.55 130.17,41.2 130.17,32.45 130.14,32.1 130.06,31.77 129.92,31.45 129.73,31.15 129.5,30.89 129.23,30.67 128.93,30.5 "
       style="fill:#ffffff;stroke:#f8766d;stroke-width:0.53"
       clip-path="url(#cpMzUuNzJ8MzE4LjUyfDI5My4xMnwyMi43OA==)"
       id="polygon874"
       transform="translate(64)" />
    <text
       x="107.58"
       y="39.759998"
       style="font-size:9.33333333px;font-family:Helvetica;fill:#f8766d;-inkscape-font-specification:'Helvetica, Normal';font-weight:normal;font-style:normal;font-stretch:normal;font-variant:normal;font-variant-ligatures:normal;font-variant-caps:normal;font-variant-numeric:normal;font-variant-east-asian:normal;"
       id="text876"
       transform="translate(64)">L1_1</text>
    <polygon
       points="147.22,186.13 146.88,186.06 146.62,186.04 124.75,186.04 125.01,186.06 124.67,186.05 124.32,186.09 123.99,186.18 123.67,186.33 123.39,186.53 123.14,186.77 122.93,187.05 122.77,187.36 122.66,187.69 122.6,188.03 122.59,188.2 122.59,196.96 122.6,196.78 122.6,197.13 122.66,197.47 122.77,197.8 122.93,198.11 123.14,198.39 123.39,198.63 123.67,198.83 123.99,198.98 124.32,199.07 124.67,199.12 124.75,199.12 146.62,199.12 146.53,199.12 146.88,199.1 147.22,199.03 147.55,198.91 147.85,198.73 148.12,198.51 148.35,198.25 148.53,197.96 148.67,197.64 148.75,197.3 148.78,196.96 148.78,188.2 148.75,187.86 148.67,187.52 148.53,187.2 148.35,186.91 148.12,186.65 147.85,186.43 147.55,186.25 "
       style="fill:#ffffff;stroke:#f8766d;stroke-width:0.53"
       clip-path="url(#cpMzUuNzJ8MzE4LjUyfDI5My4xMnwyMi43OA==)"
       id="polygon880"
       transform="translate(64)" />
    <text
       x="126.19"
       y="195.52"
       style="font-size:9.33333333px;font-family:Helvetica;fill:#f8766d;-inkscape-font-specification:'Helvetica, Normal';font-weight:normal;font-style:normal;font-stretch:normal;font-variant:normal;font-variant-ligatures:normal;font-variant-caps:normal;font-variant-numeric:normal;font-variant-east-asian:normal;"
       id="text882"
       transform="translate(64)">L1_2</text>
    <polygon
       points="118.59,89.52 118.25,89.45 117.99,89.43 96.12,89.43 96.38,89.45 96.03,89.43 95.69,89.47 95.35,89.57 95.04,89.72 94.75,89.92 94.5,90.16 94.29,90.44 94.13,90.74 94.02,91.07 93.97,91.42 93.96,91.59 93.96,100.34 93.97,100.17 93.97,100.52 94.02,100.86 94.13,101.19 94.29,101.5 94.5,101.78 94.75,102.02 95.04,102.21 95.35,102.36 95.69,102.46 96.03,102.5 96.12,102.5 117.99,102.5 117.9,102.5 118.25,102.49 118.59,102.42 118.91,102.29 119.21,102.12 119.48,101.9 119.71,101.64 119.9,101.35 120.04,101.03 120.12,100.69 120.15,100.34 120.15,91.59 120.12,91.24 120.04,90.91 119.9,90.59 119.71,90.29 119.48,90.03 119.21,89.81 118.91,89.64 "
       style="fill:#ffffff;stroke:#f8766d;stroke-width:0.53"
       clip-path="url(#cpMzUuNzJ8MzE4LjUyfDI5My4xMnwyMi43OA==)"
       id="polygon886"
       transform="translate(64)" />
    <text
       x="97.559998"
       y="98.900002"
       style="font-size:9.33333333px;font-family:Helvetica;fill:#f8766d;-inkscape-font-specification:'Helvetica, Normal';font-weight:normal;font-style:normal;font-stretch:normal;font-variant:normal;font-variant-ligatures:normal;font-variant-caps:normal;font-variant-numeric:normal;font-variant-east-asian:normal;"
       id="text888"
       transform="translate(64)">L1_3</text>
    <polygon
       points="131.35,28.62 131.01,28.55 130.75,28.53 108.88,28.53 109.14,28.55 108.79,28.53 108.45,28.58 108.11,28.67 107.8,28.82 107.51,29.02 107.26,29.26 107.05,29.54 106.89,29.84 106.78,30.17 106.73,30.52 106.72,30.69 106.72,39.44 106.73,39.27 106.73,39.62 106.78,39.96 106.89,40.29 107.05,40.6 107.26,40.88 107.51,41.12 107.8,41.31 108.11,41.46 108.45,41.56 108.79,41.6 108.88,41.6 130.75,41.6 130.66,41.6 131.01,41.59 131.35,41.52 131.68,41.4 131.98,41.22 132.25,41 132.48,40.74 132.66,40.45 132.8,40.13 132.88,39.79 132.91,39.44 132.91,30.69 132.88,30.34 132.8,30.01 132.66,29.69 132.48,29.39 132.25,29.13 131.98,28.91 131.68,28.74 "
       style="fill:#ffffff;stroke:#f8766d;stroke-width:0.53"
       clip-path="url(#cpMzUuNzJ8MzE4LjUyfDI5My4xMnwyMi43OA==)"
       id="polygon892"
       transform="translate(64)" />
    <text
       x="110.32"
       y="38"
       style="font-size:9.33333333px;font-family:Helvetica;fill:#f8766d;-inkscape-font-specification:'Helvetica, Normal';font-weight:normal;font-style:normal;font-stretch:normal;font-variant:normal;font-variant-ligatures:normal;font-variant-caps:normal;font-variant-numeric:normal;font-variant-east-asian:normal;"
       id="text894"
       transform="translate(64)">L1_4</text>
    <polygon
       points="112.09,169.45 111.75,169.38 111.49,169.37 89.62,169.37 89.88,169.38 89.53,169.37 89.19,169.41 88.85,169.51 88.54,169.66 88.25,169.85 88,170.09 87.79,170.37 87.63,170.68 87.52,171.01 87.47,171.35 87.46,171.53 87.46,180.28 87.47,180.11 87.47,180.45 87.52,180.8 87.63,181.13 87.79,181.43 88,181.71 88.25,181.95 88.54,182.15 88.85,182.3 89.19,182.4 89.53,182.44 89.62,182.44 111.49,182.44 111.4,182.44 111.75,182.42 112.09,182.35 112.41,182.23 112.72,182.06 112.98,181.84 113.22,181.58 113.4,181.28 113.54,180.96 113.62,180.63 113.65,180.28 113.65,171.53 113.62,171.18 113.54,170.84 113.4,170.52 113.22,170.23 112.98,169.97 112.72,169.75 112.41,169.58 "
       style="fill:#ffffff;stroke:#f8766d;stroke-width:0.53"
       clip-path="url(#cpMzUuNzJ8MzE4LjUyfDI5My4xMnwyMi43OA==)"
       id="polygon898"
       transform="translate(64)" />
    <text
       x="91.059998"
       y="178.84"
       style="font-size:9.33333333px;font-family:Helvetica;fill:#f8766d;-inkscape-font-specification:'Helvetica, Normal';font-weight:normal;font-style:normal;font-stretch:normal;font-variant:normal;font-variant-ligatures:normal;font-variant-caps:normal;font-variant-numeric:normal;font-variant-east-asian:normal;"
       id="text900"
       transform="translate(64)">L1_5</text>
    <polygon
       points="60.11,71.16 59.77,71.09 59.51,71.07 37.64,71.07 37.9,71.09 37.55,71.08 37.21,71.12 36.87,71.21 36.56,71.36 36.27,71.56 36.02,71.8 35.81,72.08 35.65,72.39 35.54,72.72 35.49,73.06 35.48,73.23 35.48,81.99 35.49,81.81 35.49,82.16 35.54,82.5 35.65,82.83 35.81,83.14 36.02,83.42 36.27,83.66 36.56,83.86 36.87,84.01 37.21,84.1 37.55,84.14 37.64,84.15 59.51,84.15 59.42,84.14 59.77,84.13 60.11,84.06 60.44,83.94 60.74,83.76 61.01,83.54 61.24,83.28 61.42,82.99 61.56,82.67 61.64,82.33 61.67,81.99 61.67,73.23 61.64,72.89 61.56,72.55 61.42,72.23 61.24,71.94 61.01,71.68 60.74,71.46 60.44,71.28 "
       style="fill:#ffffff;stroke:#f8766d;stroke-width:0.53"
       clip-path="url(#cpMzUuNzJ8MzE4LjUyfDI5My4xMnwyMi43OA==)"
       id="polygon904"
       transform="translate(64)" />
    <text
       x="39.080002"
       y="80.550003"
       style="font-size:9.33333333px;font-family:Helvetica;fill:#f8766d;-inkscape-font-specification:'Helvetica, Normal';font-weight:normal;font-style:normal;font-stretch:normal;font-variant:normal;font-variant-ligatures:normal;font-variant-caps:normal;font-variant-numeric:normal;font-variant-east-asian:normal;"
       id="text906"
       transform="translate(64)">L1_6</text>
    <polygon
       points="204.69,46.69 204.35,46.62 204.09,46.6 182.22,46.6 182.48,46.62 182.14,46.6 181.79,46.65 181.46,46.74 181.14,46.89 180.86,47.09 180.61,47.33 180.4,47.61 180.24,47.92 180.13,48.25 180.07,48.59 180.06,48.76 180.06,57.51 180.07,57.34 180.07,57.69 180.13,58.03 180.24,58.36 180.4,58.67 180.61,58.95 180.86,59.19 181.14,59.39 181.46,59.53 181.79,59.63 182.14,59.67 182.22,59.67 204.09,59.67 204,59.67 204.35,59.66 204.69,59.59 205.02,59.47 205.32,59.29 205.59,59.07 205.82,58.81 206,58.52 206.14,58.2 206.22,57.86 206.25,57.51 206.25,48.76 206.22,48.42 206.14,48.08 206,47.76 205.82,47.46 205.59,47.2 205.32,46.98 205.02,46.81 "
       style="fill:#ffffff;stroke:#00ba38;stroke-width:0.53"
       clip-path="url(#cpMzUuNzJ8MzE4LjUyfDI5My4xMnwyMi43OA==)"
       id="polygon910"
       transform="translate(64)" />
    <text
       x="183.66"
       y="56.07"
       style="font-size:9.33333333px;font-family:Helvetica;fill:#00ba38;-inkscape-font-specification:'Helvetica, Normal';font-weight:normal;font-style:normal;font-stretch:normal;font-variant:normal;font-variant-ligatures:normal;font-variant-caps:normal;font-variant-numeric:normal;font-variant-east-asian:normal;"
       id="text912"
       transform="translate(64)">L2_1</text>
    <polygon
       points="206.4,157.7 206.06,157.63 205.8,157.61 183.93,157.61 184.19,157.63 183.84,157.62 183.5,157.66 183.16,157.76 182.85,157.9 182.56,158.1 182.31,158.34 182.1,158.62 181.94,158.93 181.83,159.26 181.78,159.6 181.77,159.77 181.77,168.53 181.78,168.35 181.78,168.7 181.83,169.04 181.94,169.37 182.1,169.68 182.31,169.96 182.56,170.2 182.85,170.4 183.16,170.55 183.5,170.64 183.84,170.69 183.93,170.69 205.8,170.69 205.71,170.69 206.06,170.67 206.4,170.6 206.72,170.48 207.02,170.31 207.29,170.09 207.52,169.83 207.71,169.53 207.85,169.21 207.93,168.87 207.96,168.53 207.96,159.77 207.93,159.43 207.85,159.09 207.71,158.77 207.52,158.48 207.29,158.22 207.02,158 206.72,157.82 "
       style="fill:#ffffff;stroke:#00ba38;stroke-width:0.53"
       clip-path="url(#cpMzUuNzJ8MzE4LjUyfDI5My4xMnwyMi43OA==)"
       id="polygon916"
       transform="translate(64)" />
    <text
       x="185.37"
       y="167.09"
       style="font-size:9.33333333px;font-family:Helvetica;fill:#00ba38;-inkscape-font-specification:'Helvetica, Normal';font-weight:normal;font-style:normal;font-stretch:normal;font-variant:normal;font-variant-ligatures:normal;font-variant-caps:normal;font-variant-numeric:normal;font-variant-east-asian:normal;"
       id="text918"
       transform="translate(64)">L2_2</text>
    <polygon
       points="213.7,145.57 213.36,145.5 213.1,145.48 191.23,145.48 191.49,145.5 191.14,145.49 190.79,145.53 190.46,145.63 190.15,145.77 189.86,145.97 189.61,146.21 189.4,146.49 189.24,146.8 189.13,147.13 189.07,147.47 189.07,147.64 189.07,156.4 189.07,156.22 189.07,156.57 189.13,156.91 189.24,157.24 189.4,157.55 189.61,157.83 189.86,158.07 190.15,158.27 190.46,158.42 190.79,158.51 191.14,158.56 191.23,158.56 213.1,158.56 213.01,158.56 213.36,158.54 213.7,158.47 214.02,158.35 214.32,158.18 214.59,157.96 214.82,157.7 215.01,157.4 215.14,157.08 215.23,156.74 215.26,156.4 215.26,147.64 215.23,147.3 215.14,146.96 215.01,146.64 214.82,146.35 214.59,146.09 214.32,145.87 214.02,145.69 "
       style="fill:#ffffff;stroke:#00ba38;stroke-width:0.53"
       clip-path="url(#cpMzUuNzJ8MzE4LjUyfDI5My4xMnwyMi43OA==)"
       id="polygon922"
       transform="translate(64)" />
    <text
       x="192.67"
       y="154.96001"
       style="font-size:9.33333333px;font-family:Helvetica;fill:#00ba38;-inkscape-font-specification:'Helvetica, Normal';font-weight:normal;font-style:normal;font-stretch:normal;font-variant:normal;font-variant-ligatures:normal;font-variant-caps:normal;font-variant-numeric:normal;font-variant-east-asian:normal;"
       id="text924"
       transform="translate(64)">L2_3</text>
    <polygon
       points="167.33,61.8 166.99,61.73 166.73,61.72 144.86,61.72 145.12,61.73 144.77,61.72 144.43,61.76 144.09,61.86 143.78,62.01 143.49,62.2 143.24,62.44 143.03,62.72 142.87,63.03 142.76,63.36 142.71,63.7 142.7,63.88 142.7,72.63 142.71,72.46 142.71,72.8 142.76,73.15 142.87,73.48 143.03,73.78 143.24,74.06 143.49,74.3 143.78,74.5 144.09,74.65 144.43,74.75 144.77,74.79 144.86,74.79 166.73,74.79 166.64,74.79 166.99,74.77 167.33,74.7 167.65,74.58 167.96,74.41 168.22,74.19 168.46,73.93 168.64,73.63 168.78,73.31 168.86,72.98 168.89,72.63 168.89,63.88 168.86,63.53 168.78,63.19 168.64,62.87 168.46,62.58 168.22,62.32 167.96,62.1 167.65,61.93 "
       style="fill:#ffffff;stroke:#00ba38;stroke-width:0.53"
       clip-path="url(#cpMzUuNzJ8MzE4LjUyfDI5My4xMnwyMi43OA==)"
       id="polygon928"
       transform="translate(64)" />
    <text
       x="146.3"
       y="71.190002"
       style="font-size:9.33333333px;font-family:Helvetica;fill:#00ba38;-inkscape-font-specification:'Helvetica, Normal';font-weight:normal;font-style:normal;font-stretch:normal;font-variant:normal;font-variant-ligatures:normal;font-variant-caps:normal;font-variant-numeric:normal;font-variant-east-asian:normal;"
       id="text930"
       transform="translate(64)">L2_4</text>
    <polygon
       points="171.79,200.55 171.45,200.48 171.19,200.46 149.32,200.46 149.58,200.48 149.23,200.46 148.89,200.5 148.55,200.6 148.24,200.75 147.95,200.95 147.7,201.19 147.49,201.47 147.33,201.77 147.22,202.1 147.16,202.45 147.16,202.62 147.16,211.37 147.16,211.2 147.16,211.55 147.22,211.89 147.33,212.22 147.49,212.53 147.7,212.8 147.95,213.05 148.24,213.24 148.55,213.39 148.89,213.49 149.23,213.53 149.32,213.53 171.19,213.53 171.1,213.53 171.45,213.52 171.79,213.45 172.11,213.32 172.41,213.15 172.68,212.93 172.91,212.67 173.1,212.38 173.23,212.06 173.32,211.72 173.35,211.37 173.35,202.62 173.32,202.27 173.23,201.94 173.1,201.62 172.91,201.32 172.68,201.06 172.41,200.84 172.11,200.67 "
       style="fill:#ffffff;stroke:#00ba38;stroke-width:0.53"
       clip-path="url(#cpMzUuNzJ8MzE4LjUyfDI5My4xMnwyMi43OA==)"
       id="polygon934"
       transform="translate(64)" />
    <text
       x="150.75999"
       y="209.92999"
       style="font-size:9.33333333px;font-family:Helvetica;fill:#00ba38;-inkscape-font-specification:'Helvetica, Normal';font-weight:normal;font-style:normal;font-stretch:normal;font-variant:normal;font-variant-ligatures:normal;font-variant-caps:normal;font-variant-numeric:normal;font-variant-east-asian:normal;"
       id="text936"
       transform="translate(64)">L2_5</text>
    <polygon
       points="149.12,136.12 148.78,136.05 148.52,136.04 126.65,136.04 126.91,136.05 126.57,136.04 126.22,136.08 125.89,136.18 125.57,136.33 125.29,136.52 125.04,136.76 124.83,137.04 124.67,137.35 124.56,137.68 124.5,138.02 124.49,138.2 124.49,146.95 124.5,146.78 124.5,147.12 124.56,147.47 124.67,147.8 124.83,148.1 125.04,148.38 125.29,148.62 125.57,148.82 125.89,148.97 126.22,149.07 126.57,149.11 126.65,149.11 148.52,149.11 148.44,149.11 148.78,149.09 149.12,149.02 149.45,148.9 149.75,148.73 150.02,148.51 150.25,148.25 150.43,147.95 150.57,147.63 150.65,147.3 150.68,146.95 150.68,138.2 150.65,137.85 150.57,137.51 150.43,137.19 150.25,136.9 150.02,136.64 149.75,136.42 149.45,136.25 "
       style="fill:#ffffff;stroke:#00ba38;stroke-width:0.53"
       clip-path="url(#cpMzUuNzJ8MzE4LjUyfDI5My4xMnwyMi43OA==)"
       id="polygon940"
       transform="translate(64)" />
    <text
       x="128.09"
       y="145.50999"
       style="font-size:9.33333333px;font-family:Helvetica;fill:#00ba38;-inkscape-font-specification:'Helvetica, Normal';font-weight:normal;font-style:normal;font-stretch:normal;font-variant:normal;font-variant-ligatures:normal;font-variant-caps:normal;font-variant-numeric:normal;font-variant-east-asian:normal;"
       id="text942"
       transform="translate(64)">L2_6</text>
    <polygon
       points="317.2,71.3 316.86,71.23 316.6,71.22 294.73,71.22 294.99,71.23 294.64,71.22 294.3,71.26 293.97,71.36 293.65,71.51 293.37,71.71 293.11,71.95 292.91,72.22 292.74,72.53 292.63,72.86 292.58,73.2 292.57,73.38 292.57,82.13 292.58,81.96 292.58,82.3 292.63,82.65 292.74,82.98 292.91,83.29 293.11,83.56 293.37,83.8 293.65,84 293.97,84.15 294.3,84.25 294.64,84.29 294.73,84.29 316.6,84.29 316.51,84.29 316.86,84.28 317.2,84.21 317.53,84.08 317.83,83.91 318.1,83.69 318.33,83.43 318.51,83.13 318.65,82.81 318.73,82.48 318.76,82.13 318.76,73.38 318.73,73.03 318.65,72.69 318.51,72.37 318.33,72.08 318.1,71.82 317.83,71.6 317.53,71.43 "
       style="fill:#ffffff;stroke:#619cff;stroke-width:0.53"
       clip-path="url(#cpMzUuNzJ8MzE4LjUyfDI5My4xMnwyMi43OA==)"
       id="polygon946"
       transform="translate(64)" />
    <text
       x="296.17001"
       y="80.690002"
       style="font-size:9.33333302px;font-family:Helvetica;fill:#619cff;-inkscape-font-specification:'Helvetica, Normal';font-weight:normal;font-style:normal;font-stretch:normal;font-variant:normal;font-variant-ligatures:normal;font-variant-caps:normal;font-variant-numeric:normal;font-variant-east-asian:normal;"
       id="text948"
       transform="translate(64)">L3_1</text>
    <polygon
       points="225.56,274.38 225.22,274.31 224.96,274.29 203.09,274.29 203.35,274.31 203.01,274.3 202.66,274.34 202.33,274.43 202.01,274.58 201.73,274.78 201.48,275.02 201.27,275.3 201.11,275.61 201,275.94 200.94,276.28 200.93,276.45 200.93,285.21 200.94,285.03 200.94,285.38 201,285.72 201.11,286.05 201.27,286.36 201.48,286.64 201.73,286.88 202.01,287.08 202.33,287.23 202.66,287.32 203.01,287.36 203.09,287.37 224.96,287.37 224.88,287.36 225.22,287.35 225.56,287.28 225.89,287.16 226.19,286.98 226.46,286.76 226.69,286.5 226.88,286.21 227.01,285.89 227.1,285.55 227.12,285.21 227.12,276.45 227.1,276.11 227.01,275.77 226.88,275.45 226.69,275.16 226.46,274.9 226.19,274.68 225.89,274.5 "
       style="fill:#ffffff;stroke:#619cff;stroke-width:0.53"
       clip-path="url(#cpMzUuNzJ8MzE4LjUyfDI5My4xMnwyMi43OA==)"
       id="polygon952"
       transform="translate(64)" />
    <text
       x="204.53"
       y="283.76999"
       style="font-size:9.33333302px;font-family:Helvetica;fill:#619cff;-inkscape-font-specification:'Helvetica, Normal';font-weight:normal;font-style:normal;font-stretch:normal;font-variant:normal;font-variant-ligatures:normal;font-variant-caps:normal;font-variant-numeric:normal;font-variant-east-asian:normal;"
       id="text954"
       transform="translate(64)">L3_2</text>
    <polygon
       points="291.69,56.78 291.35,56.71 291.09,56.7 269.22,56.7 269.48,56.71 269.14,56.7 268.79,56.74 268.46,56.84 268.14,56.99 267.86,57.18 267.61,57.42 267.4,57.7 267.24,58.01 267.13,58.34 267.07,58.68 267.06,58.86 267.06,67.61 267.07,67.44 267.07,67.78 267.13,68.13 267.24,68.46 267.4,68.76 267.61,69.04 267.86,69.28 268.14,69.48 268.46,69.63 268.79,69.73 269.14,69.77 269.22,69.77 291.09,69.77 291.01,69.77 291.35,69.75 291.69,69.68 292.02,69.56 292.32,69.39 292.59,69.17 292.82,68.91 293.01,68.61 293.14,68.29 293.23,67.96 293.25,67.61 293.25,58.86 293.23,58.51 293.14,58.17 293.01,57.85 292.82,57.56 292.59,57.3 292.32,57.08 292.02,56.9 "
       style="fill:#ffffff;stroke:#619cff;stroke-width:0.53"
       clip-path="url(#cpMzUuNzJ8MzE4LjUyfDI5My4xMnwyMi43OA==)"
       id="polygon958"
       transform="translate(64)" />
    <text
       x="270.66"
       y="66.169998"
       style="font-size:9.33333302px;font-family:Helvetica;fill:#619cff;-inkscape-font-specification:'Helvetica, Normal';font-weight:normal;font-style:normal;font-stretch:normal;font-variant:normal;font-variant-ligatures:normal;font-variant-caps:normal;font-variant-numeric:normal;font-variant-east-asian:normal;"
       id="text960"
       transform="translate(64)">L3_3</text>
    <polygon
       points="259.78,151.44 259.44,151.37 259.18,151.36 237.31,151.36 237.57,151.37 237.22,151.36 236.88,151.4 236.54,151.5 236.23,151.65 235.94,151.84 235.69,152.08 235.48,152.36 235.32,152.67 235.21,153 235.16,153.34 235.15,153.52 235.15,162.27 235.16,162.1 235.16,162.44 235.21,162.79 235.32,163.12 235.48,163.42 235.69,163.7 235.94,163.94 236.23,164.14 236.54,164.29 236.88,164.39 237.22,164.43 237.31,164.43 259.18,164.43 259.09,164.43 259.44,164.41 259.78,164.34 260.1,164.22 260.41,164.05 260.68,163.83 260.91,163.57 261.09,163.27 261.23,162.95 261.31,162.62 261.34,162.27 261.34,153.52 261.31,153.17 261.23,152.83 261.09,152.51 260.91,152.22 260.68,151.96 260.41,151.74 260.1,151.57 "
       style="fill:#ffffff;stroke:#619cff;stroke-width:0.53"
       clip-path="url(#cpMzUuNzJ8MzE4LjUyfDI5My4xMnwyMi43OA==)"
       id="polygon964"
       transform="translate(64)" />
    <text
       x="238.75"
       y="160.83"
       style="font-size:9.33333302px;font-family:Helvetica;fill:#619cff;-inkscape-font-specification:'Helvetica, Normal';font-weight:normal;font-style:normal;font-stretch:normal;font-variant:normal;font-variant-ligatures:normal;font-variant-caps:normal;font-variant-numeric:normal;font-variant-east-asian:normal;"
       id="text966"
       transform="translate(64)">L3_4</text>
    <polygon
       points="282.66,79.77 282.32,79.7 282.06,79.68 260.2,79.68 260.46,79.7 260.11,79.68 259.76,79.72 259.43,79.82 259.12,79.97 258.83,80.17 258.58,80.41 258.37,80.69 258.21,80.99 258.1,81.32 258.04,81.67 258.04,81.84 258.04,90.59 258.04,90.42 258.04,90.77 258.1,91.11 258.21,91.44 258.37,91.75 258.58,92.03 258.83,92.27 259.12,92.46 259.43,92.61 259.76,92.71 260.11,92.75 260.2,92.75 282.06,92.75 281.98,92.75 282.32,92.74 282.66,92.67 282.99,92.54 283.29,92.37 283.56,92.15 283.79,91.89 283.98,91.6 284.11,91.28 284.2,90.94 284.22,90.59 284.22,81.84 284.2,81.49 284.11,81.16 283.98,80.84 283.79,80.54 283.56,80.28 283.29,80.06 282.99,79.89 "
       style="fill:#ffffff;stroke:#619cff;stroke-width:0.53"
       clip-path="url(#cpMzUuNzJ8MzE4LjUyfDI5My4xMnwyMi43OA==)"
       id="polygon970"
       transform="translate(64)" />
    <text
       x="261.64001"
       y="89.150002"
       style="font-size:9.33333302px;font-family:Helvetica;fill:#619cff;-inkscape-font-specification:'Helvetica, Normal';font-weight:normal;font-style:normal;font-stretch:normal;font-variant:normal;font-variant-ligatures:normal;font-variant-caps:normal;font-variant-numeric:normal;font-variant-east-asian:normal;"
       id="text972"
       transform="translate(64)">L3_5</text>
    <polygon
       points="302.9,86.05 302.56,85.98 302.3,85.96 280.43,85.96 280.69,85.98 280.34,85.97 280,86.01 279.66,86.1 279.35,86.25 279.06,86.45 278.81,86.69 278.6,86.97 278.44,87.28 278.33,87.61 278.28,87.95 278.27,88.12 278.27,96.88 278.28,96.7 278.28,97.05 278.33,97.39 278.44,97.72 278.6,98.03 278.81,98.31 279.06,98.55 279.35,98.75 279.66,98.9 280,98.99 280.34,99.03 280.43,99.04 302.3,99.04 302.21,99.03 302.56,99.02 302.9,98.95 303.22,98.83 303.53,98.65 303.79,98.43 304.03,98.17 304.21,97.88 304.35,97.56 304.43,97.22 304.46,96.88 304.46,88.12 304.43,87.78 304.35,87.44 304.21,87.12 304.03,86.83 303.79,86.57 303.53,86.35 303.22,86.17 "
       style="fill:#ffffff;stroke:#619cff;stroke-width:0.53"
       clip-path="url(#cpMzUuNzJ8MzE4LjUyfDI5My4xMnwyMi43OA==)"
       id="polygon976"
       transform="translate(64)" />
    <text
       x="281.87"
       y="95.440002"
       style="font-size:9.33333302px;font-family:Helvetica;fill:#619cff;-inkscape-font-specification:'Helvetica, Normal';font-weight:normal;font-style:normal;font-stretch:normal;font-variant:normal;font-variant-ligatures:normal;font-variant-caps:normal;font-variant-numeric:normal;font-variant-east-asian:normal;"
       id="text978"
       transform="translate(64)">L3_6</text>
    <rect
       x="35.720001"
       y="22.780001"
       width="282.79999"
       height="270.34"
       style="stroke:#333333;stroke-width:1.07"
       clip-path="url(#cpMzUuNzJ8MzE4LjUyfDI5My4xMnwyMi43OA==)"
       id="rect982"
       transform="translate(64)" />
    <text
       x="18.07"
       y="216.66"
       style="font-size:9.33333333px;font-family:Helvetica;fill:#4d4d4d;-inkscape-font-specification:'Helvetica, Normal';font-weight:normal;font-style:normal;font-stretch:normal;font-variant:normal;font-variant-ligatures:normal;font-variant-caps:normal;font-variant-numeric:normal;font-variant-east-asian:normal;"
       id="text989"
       transform="translate(64)">-10</text>
    <text
       x="25.889999"
       y="123"
       style="font-size:9.33333333px;font-family:Helvetica;fill:#4d4d4d;-inkscape-font-specification:'Helvetica, Normal';font-weight:normal;font-style:normal;font-stretch:normal;font-variant:normal;font-variant-ligatures:normal;font-variant-caps:normal;font-variant-numeric:normal;font-variant-east-asian:normal;"
       id="text993"
       transform="translate(64)">0</text>
    <text
       x="21"
       y="29.34"
       style="font-size:9.33333333px;font-family:Helvetica;fill:#4d4d4d;-inkscape-font-specification:'Helvetica, Normal';font-weight:normal;font-style:normal;font-stretch:normal;font-variant:normal;font-variant-ligatures:normal;font-variant-caps:normal;font-variant-numeric:normal;font-variant-east-asian:normal;"
       id="text997"
       transform="translate(64)">10</text>
    <polyline
       points="32.98,213.63 35.72,213.63 "
       style="stroke:#333333;stroke-width:1.07;stroke-linecap:butt"
       clip-path="url(#cpMC4wMHwzMjQuMDB8MzI0LjAwfDAuMDA=)"
       id="polyline1001"
       transform="translate(64)" />
    <polyline
       points="32.98,119.97 35.72,119.97 "
       style="stroke:#333333;stroke-width:1.07;stroke-linecap:butt"
       clip-path="url(#cpMC4wMHwzMjQuMDB8MzI0LjAwfDAuMDA=)"
       id="polyline1003"
       transform="translate(64)" />
    <polyline
       points="32.98,26.31 35.72,26.31 "
       style="stroke:#333333;stroke-width:1.07;stroke-linecap:butt"
       clip-path="url(#cpMC4wMHwzMjQuMDB8MzI0LjAwfDAuMDA=)"
       id="polyline1005"
       transform="translate(64)" />
    <polyline
       points="97.80,295.86 97.80,293.12 "
       style="stroke:#333333;stroke-width:1.07;stroke-linecap:butt"
       clip-path="url(#cpMC4wMHwzMjQuMDB8MzI0LjAwfDAuMDA=)"
       id="polyline1007"
       transform="translate(64)" />
    <polyline
       points="182.40,295.86 182.40,293.12 "
       style="stroke:#333333;stroke-width:1.07;stroke-linecap:butt"
       clip-path="url(#cpMC4wMHwzMjQuMDB8MzI0LjAwfDAuMDA=)"
       id="polyline1009"
       transform="translate(64)" />
    <polyline
       points="266.99,295.86 266.99,293.12 "
       style="stroke:#333333;stroke-width:1.07;stroke-linecap:butt"
       clip-path="url(#cpMC4wMHwzMjQuMDB8MzI0LjAwfDAuMDA=)"
       id="polyline1011"
       transform="translate(64)" />
    <text
       x="91.440002"
       y="304.10001"
       style="font-size:9.33333333px;font-family:Helvetica;fill:#4d4d4d;-inkscape-font-specification:'Helvetica, Normal';font-weight:normal;font-style:normal;font-stretch:normal;font-variant:normal;font-variant-ligatures:normal;font-variant-caps:normal;font-variant-numeric:normal;font-variant-east-asian:normal;"
       id="text1013"
       transform="translate(64)">-10</text>
    <text
       x="179.95"
       y="304.10001"
       style="font-size:9.33333333px;font-family:Helvetica;fill:#4d4d4d;-inkscape-font-specification:'Helvetica, Normal';font-weight:normal;font-style:normal;font-stretch:normal;font-variant:normal;font-variant-ligatures:normal;font-variant-caps:normal;font-variant-numeric:normal;font-variant-east-asian:normal;"
       id="text1017"
       transform="translate(64)">0</text>
    <text
       x="262.10001"
       y="304.10001"
       style="font-size:9.33333333px;font-family:Helvetica;fill:#4d4d4d;-inkscape-font-specification:'Helvetica, Normal';font-weight:normal;font-style:normal;font-stretch:normal;font-variant:normal;font-variant-ligatures:normal;font-variant-caps:normal;font-variant-numeric:normal;font-variant-east-asian:normal;"
       id="text1021"
       transform="translate(64)">10</text>
    <text
       x="130.03999"
       y="316.23999"
       style="font-size:10.66670000000000051px;font-family:Helvetica;-inkscape-font-specification:'Helvetica, Normal';font-weight:normal;font-style:normal;font-stretch:normal;font-variant:normal;font-variant-ligatures:normal;font-variant-caps:normal;font-variant-numeric:normal;font-variant-east-asian:normal;"
       id="text1025"
       transform="translate(64)">PC1: 15% variance</text>
    <text
       transform="rotate(-90,141.04,63.99)"
       style="font-size:10.66670000000000051px;font-family:Helvetica;-inkscape-font-specification:'Helvetica, Normal';font-weight:normal;font-style:normal;font-stretch:normal;font-variant:normal;font-variant-ligatures:normal;font-variant-caps:normal;font-variant-numeric:normal;font-variant-east-asian:normal;"
       id="text1029">PC2: 10% variance</text>
    <rect
       x="240.21001"
       y="204.91"
       width="43.509998"
       height="68.279999"
       style="fill:#ffffff;stroke:none;stroke-width:1.07"
       clip-path="url(#cpMC4wMHwzMjQuMDB8MzI0LjAwfDAuMDA=)"
       id="rect1033"
       transform="translate(64)" />
    <rect
       x="245.69"
       y="215.87"
       width="17.280001"
       height="17.280001"
       style="fill:#ffffff;stroke:none;stroke-width:1.07"
       clip-path="url(#cpMC4wMHwzMjQuMDB8MzI0LjAwfDAuMDA=)"
       id="rect1035"
       transform="translate(64)" />
    <rect
       x="245.69"
       y="215.87"
       width="17.280001"
       height="17.280001"
       style="fill:#ffffff;stroke:none;stroke-width:0.75"
       clip-path="url(#cpMC4wMHwzMjQuMDB8MzI0LjAwfDAuMDA=)"
       id="rect1037"
       transform="translate(64)" />
    <text
       x="251.95"
       y="227.45"
       style="font-size:9.33333333px;font-family:Helvetica;fill:#f8766d;-inkscape-font-specification:'Helvetica, Normal';font-weight:normal;font-style:normal;font-stretch:normal;font-variant:normal;font-variant-ligatures:normal;font-variant-caps:normal;font-variant-numeric:normal;font-variant-east-asian:normal;"
       id="text1039"
       transform="translate(64)">a</text>
    <rect
       x="245.69"
       y="233.14999"
       width="17.280001"
       height="17.280001"
       style="fill:#ffffff;stroke:none;stroke-width:1.07"
       clip-path="url(#cpMC4wMHwzMjQuMDB8MzI0LjAwfDAuMDA=)"
       id="rect1043"
       transform="translate(64)" />
    <rect
       x="245.69"
       y="233.14999"
       width="17.280001"
       height="17.280001"
       style="fill:#ffffff;stroke:none;stroke-width:0.75"
       clip-path="url(#cpMC4wMHwzMjQuMDB8MzI0LjAwfDAuMDA=)"
       id="rect1045"
       transform="translate(64)" />
    <text
       x="251.95"
       y="244.73"
       style="font-size:9.33333333px;font-family:Helvetica;fill:#00ba38;-inkscape-font-specification:'Helvetica, Normal';font-weight:normal;font-style:normal;font-stretch:normal;font-variant:normal;font-variant-ligatures:normal;font-variant-caps:normal;font-variant-numeric:normal;font-variant-east-asian:normal;"
       id="text1047"
       transform="translate(64)">a</text>
    <rect
       x="245.69"
       y="250.42999"
       width="17.280001"
       height="17.280001"
       style="fill:#ffffff;stroke:none;stroke-width:1.07"
       clip-path="url(#cpMC4wMHwzMjQuMDB8MzI0LjAwfDAuMDA=)"
       id="rect1051"
       transform="translate(64)" />
    <rect
       x="245.69"
       y="250.42999"
       width="17.280001"
       height="17.280001"
       style="fill:#ffffff;stroke:none;stroke-width:0.75"
       clip-path="url(#cpMC4wMHwzMjQuMDB8MzI0LjAwfDAuMDA=)"
       id="rect1053"
       transform="translate(64)" />
    <text
       x="251.95"
       y="262.01001"
       style="font-size:9.33333302px;font-family:Helvetica;fill:#619cff;-inkscape-font-specification:'Helvetica, Normal';font-weight:normal;font-style:normal;font-stretch:normal;font-variant:normal;font-variant-ligatures:normal;font-variant-caps:normal;font-variant-numeric:normal;font-variant-east-asian:normal;"
       id="text1055"
       transform="translate(64)">a</text>
    <text
       x="268.45001"
       y="227.53999"
       style="font-size:10.66666667px;font-family:Helvetica;-inkscape-font-specification:'Helvetica, Normal';font-weight:normal;font-style:normal;font-stretch:normal;font-variant:normal;font-variant-ligatures:normal;font-variant-caps:normal;font-variant-numeric:normal;font-variant-east-asian:normal;"
       id="text1059"
       transform="translate(64)">L1</text>
    <text
       x="268.45001"
       y="244.82001"
       style="font-size:10.66666667px;font-family:Helvetica;-inkscape-font-specification:'Helvetica, Normal';font-weight:normal;font-style:normal;font-stretch:normal;font-variant:normal;font-variant-ligatures:normal;font-variant-caps:normal;font-variant-numeric:normal;font-variant-east-asian:normal;"
       id="text1063"
       transform="translate(64)">L2</text>
    <text
       x="268.45001"
       y="262.10001"
       style="font-size:10.66666667px;font-family:Helvetica;-inkscape-font-specification:'Helvetica, Normal';font-weight:normal;font-style:normal;font-stretch:normal;font-variant:normal;font-variant-ligatures:normal;font-variant-caps:normal;font-variant-numeric:normal;font-variant-east-asian:normal;"
       id="text1067"
       transform="translate(64)">L3</text>
    <text
       x="113.72"
       y="14.56"
       style="font-style:normal;font-variant:normal;font-weight:normal;font-stretch:normal;font-size:12px;font-family:Helvetica;-inkscape-font-specification:'Helvetica, Normal';font-variant-ligatures:normal;font-variant-caps:normal;font-variant-numeric:normal;font-variant-east-asian:normal"
       id="text1071">Top 500 high variance genes with VST counts</text>
  </g>
</svg>
